<svg width="74" height="33" viewBox="0 0 74 33" fill="none" xmlns="http://www.w3.org/2000/svg">
<g clip-path="url(#clip0_0_65)">
<path d="M44.5089 6.74146H36.214V7.50228C36.6052 7.55151 36.9239 7.57655 37.1925 7.64996C37.5103 7.72336 37.7305 7.82268 37.9023 7.96949C38.3911 8.3866 38.3911 9.19752 38.3911 10.6225V20.2757C38.3911 22.2404 38.563 25.0169 35.7978 24.9676C34.5991 24.9426 33.4004 24.1075 33.0083 22.5599H32.0541C32.4461 25.1637 33.8409 26.9323 37.1925 26.9323C40.0311 26.9323 42.5753 25.6058 42.5753 21.16V10.6225C42.5753 9.17334 42.5753 8.43583 43.0649 7.99367C43.3836 7.72336 43.628 7.60073 44.5089 7.50228V6.74146ZM54.0524 6.74146H45.7567V7.50228C46.6134 7.57655 46.9071 7.72336 47.2007 7.99453C47.5919 8.33824 47.6653 8.87799 47.6653 9.83658V23.2974C47.6411 24.2301 47.5919 24.82 47.2007 25.1395C46.8829 25.4098 46.6376 25.5324 45.7567 25.6309V26.3917H58.2849L59.6062 22.5357H58.652C57.6977 24.6481 56.2054 24.8934 54.8349 24.8934C53.7096 24.8934 52.9755 24.82 52.4617 24.5004C52.0454 24.2301 51.8986 23.5177 51.8745 22.2896V10.6225C51.8745 9.17334 51.8745 8.3866 52.3632 7.96949C52.6819 7.69918 53.1958 7.60073 54.0766 7.52733L54.0516 6.74146H54.0524Z" fill="#050038"/>
<path d="M67.8527 6.7415H59.5578V7.50233C60.4145 7.5766 60.7073 7.72341 61.0009 7.99458C61.393 8.33829 61.4664 8.87804 61.4664 9.83663V23.2975C61.4422 24.2302 61.393 24.82 61.0018 25.1395C60.6831 25.4098 60.4387 25.5325 59.5578 25.6309V26.3918H72.086L73.4073 22.5358H72.4531C71.4979 24.6482 70.0056 24.8934 68.636 24.8934C67.5098 24.8934 66.7758 24.82 66.2619 24.5005C65.8465 24.2302 65.6997 23.5177 65.6747 22.2897V10.6225C65.6747 9.17339 65.6747 8.38665 66.1643 7.96954C66.4822 7.69923 66.996 7.60078 67.8769 7.52738V6.7415H67.8527ZM12.1853 32.3627C12.5774 32.1899 12.9453 31.9697 13.3115 31.7236L13.5317 31.5768C13.98 31.2463 14.3904 30.8671 14.7554 30.4463C15.2442 29.9308 15.6846 29.3409 16.1009 28.7278C16.4187 28.2606 16.6881 27.7441 16.9576 27.2286C17.9602 25.2147 18.6208 23.0039 18.9637 20.8172C19.1839 19.3923 19.2815 17.9682 19.2815 16.5684C19.2815 15.1685 19.1839 13.7435 18.9637 12.3195C18.6208 10.1328 17.9852 7.89786 16.9576 5.90727C16.8349 5.68619 16.7123 5.44093 16.5905 5.21985C16.0481 6.22504 15.5975 7.27714 15.2442 8.36334C15.9048 10.3289 16.2969 12.4171 16.4437 14.4802C16.5416 15.8867 16.5416 17.2984 16.4437 18.7049C16.2719 21.2352 15.758 23.7656 14.7796 26.1232C14.4149 27.0399 13.9644 27.9201 13.4341 28.752C13.3115 28.948 13.2139 29.1449 13.0671 29.3409C12.7977 29.7316 12.5201 30.1165 12.2346 30.4956C11.8926 30.9127 11.5255 31.3307 11.1093 31.7236C10.693 32.1416 10.2526 32.5095 9.76381 32.854C9.71458 32.8782 9.6904 32.9024 9.64117 32.9274V32.9767C10.5221 32.945 11.3877 32.7362 12.1862 32.3627H12.1853Z" fill="#050038"/>
<path d="M17.2736 32.3627C17.6657 32.19 18.0327 31.9698 18.3998 31.7236L18.62 31.5768C20.1123 30.4464 21.2134 28.9239 22.045 27.2778C23.0485 25.2639 23.7091 23.0531 24.052 20.8665C24.2722 19.4416 24.3698 18.0166 24.3698 16.6176C24.3698 15.2169 24.2722 13.7928 24.052 12.3679C23.7091 10.1821 23.0727 7.94626 22.045 5.95654C21.2868 4.43402 20.2591 3.00909 18.9378 1.90369C18.5139 2.35957 18.1215 2.84373 17.7633 3.3528L18.1303 3.86923C20.2349 7.01272 21.2626 10.7469 21.507 14.5053C21.6048 15.9118 21.6048 17.3234 21.507 18.73C21.2626 22.4883 20.2349 26.2458 18.1303 29.366C17.8609 29.759 17.5923 30.1268 17.2987 30.5198C16.9558 30.9378 16.5888 31.3557 16.1725 31.7487C15.7572 32.1658 15.3167 32.5345 14.8271 32.8783C14.7778 32.9024 14.7537 32.9275 14.7044 32.9517V33.0009C15.5939 32.9546 16.4661 32.7376 17.2736 32.3618V32.3627Z" fill="#050038"/>
<path d="M23.7342 31.5509C25.2265 30.4204 26.3276 28.8979 27.1592 27.2519C28.1627 25.238 28.8233 23.0272 29.1662 20.8414C29.3864 19.4165 29.484 17.9915 29.484 16.5917C29.484 15.1918 29.3864 13.7668 29.1662 12.3428C28.8233 10.1561 28.1869 7.92116 27.1592 5.93144C26.3276 4.28543 25.2023 2.71368 23.7342 1.63246C22.6081 0.748141 21.2133 0.20753 19.8437 0.18335V0.232575C21.1892 1.16526 22.3395 2.46756 23.2203 3.84327C25.3241 6.98675 26.3517 10.7209 26.597 14.4793C26.6947 15.8858 26.6947 17.2975 26.597 18.704C26.3517 22.4624 25.3241 26.2207 23.2203 29.3401C22.3144 30.6907 21.165 31.993 19.8186 32.9507V33C21.2133 32.9507 22.6081 32.4101 23.7342 31.5509ZM17.2736 0.797366C16.8824 0.970085 16.5154 1.1903 16.1484 1.43643L15.9273 1.58324C15.5119 1.90277 15.0956 2.27152 14.7044 2.68864C14.2148 3.20507 13.7743 3.79404 13.3581 4.40806C13.0403 4.8744 12.7708 5.39083 12.5023 5.90639C11.4988 7.92116 10.8381 10.132 10.4953 12.3177C10.275 13.7427 10.1775 15.1676 10.1775 16.5666C10.1775 17.9674 10.2759 19.3914 10.4953 20.8164C10.8381 23.003 11.4746 25.238 12.5023 27.2277C12.624 27.4488 12.7467 27.694 12.8693 27.9151C13.4115 26.9099 13.8618 25.8578 14.2148 24.7716C13.5541 22.8061 13.1629 20.7179 13.0161 18.6548C12.9184 17.2482 12.9184 15.8366 13.0161 14.4301C13.1871 11.8997 13.7009 9.36941 14.6802 7.0118C15.0715 6.12748 15.5119 5.21897 16.0499 4.38388C16.1725 4.18698 16.2701 3.99094 16.4169 3.79404C16.6864 3.40111 16.955 3.03235 17.2486 2.63941C17.5914 2.2223 17.9585 1.80432 18.3747 1.41138C18.791 0.994266 19.2305 0.62551 19.7202 0.281799C19.7694 0.256755 19.7936 0.232575 19.8428 0.20753V0.18335C18.962 0.20753 18.1053 0.428611 17.2736 0.797366Z" fill="#050038"/>
<path d="M12.1862 0.797366C11.795 0.970085 11.428 1.1903 11.0609 1.43643L10.8407 1.58324C9.37261 2.71368 8.27153 4.2362 7.41484 5.88308C6.41221 7.89526 5.75156 10.1061 5.40871 12.2935C5.19433 13.708 5.08809 15.1368 5.09091 16.5675C5.09091 17.9665 5.18849 19.3914 5.40871 20.8164C5.75156 23.003 6.38716 25.238 7.41484 27.2277C8.17394 28.7502 9.20162 30.1751 10.5221 31.2806C10.9383 30.8384 11.3304 30.3479 11.6965 29.8314L11.3295 29.315C9.2258 26.1715 8.19812 22.4382 7.95286 18.6798C7.85505 17.273 7.85505 15.8611 7.95286 14.4543C8.19812 10.6968 9.2258 6.93839 11.3295 3.81909C11.599 3.42529 11.8684 3.05739 12.162 2.66446C12.504 2.24648 12.8719 1.82936 13.2873 1.43643C13.7035 1.04349 14.144 0.674735 14.6086 0.355205C14.6578 0.331024 14.682 0.30598 14.7312 0.281799V0.18335C13.8745 0.20753 12.9937 0.428611 12.1862 0.797366Z" fill="#050038"/>
<path d="M5.74981 1.60828C4.25752 2.73786 3.15643 4.26125 2.32479 5.90639C1.32129 7.92116 0.660644 10.132 0.317796 12.3177C0.103422 13.7322 -0.00281968 15.161 -6.61082e-06 16.5917C-6.61082e-06 17.9915 0.0975797 19.4165 0.317796 20.8405C0.660644 23.0272 1.29711 25.2622 2.32479 27.2519C3.15643 28.8979 4.2817 30.4696 5.74981 31.5509C6.87594 32.3609 8.2456 32.9266 9.64031 32.9758V32.9266C8.27065 31.993 7.14452 30.6907 6.23947 29.3159C4.13489 26.1715 3.10721 22.4373 2.86281 18.6798C2.76499 17.273 2.76499 15.8611 2.86281 14.4543C3.10721 10.6968 4.13489 6.93839 6.23947 3.81909C7.12034 2.46756 8.27065 1.16612 9.64031 0.232575V0.18335C8.2456 0.20753 6.85089 0.748141 5.74981 1.60828ZM15.6337 31.3039C16.0499 30.8617 16.4411 30.3712 16.8081 29.8548L16.4411 29.3392L16.0741 28.7494C15.6829 29.3392 15.2424 29.9532 14.7286 30.4688C14.9972 30.7633 15.34 31.0336 15.6337 31.3039ZM18.4006 31.7218C18.0458 31.9688 17.6692 32.1827 17.2754 32.3609C18.0739 32.7341 18.9395 32.9426 19.8204 32.9741V32.9248C19.3135 32.5653 18.8385 32.1628 18.4006 31.7218ZM14.2649 32.9507C14.4117 32.9266 14.5334 32.9024 14.6802 32.9024C14.5334 32.8039 14.4117 32.7055 14.2649 32.607C13.9304 32.348 13.6117 32.0691 13.3106 31.7719C12.9555 32.0189 12.5786 32.2328 12.1845 32.411C12.7137 32.6563 13.2734 32.8297 13.8486 32.9266C13.9954 32.9015 14.118 32.9266 14.2649 32.9507ZM14.7295 32.9758V32.9266C14.7053 32.9015 14.6802 32.9015 14.6561 32.8773C14.5093 32.9024 14.3866 32.9266 14.2398 32.9266C14.4117 32.9758 14.5827 32.9758 14.7295 32.9758ZM13.8486 1.876C13.4247 2.33248 13.0323 2.81721 12.6741 3.32684L13.0411 3.84154L13.4082 4.43137C13.7994 3.84154 14.2398 3.22752 14.7537 2.71196C14.4765 2.40811 14.1737 2.12871 13.8486 1.87686V1.876ZM11.0601 1.46061C11.4151 1.21366 11.7921 0.999747 12.1862 0.821546C11.3933 0.429252 10.5254 0.211623 9.64117 0.18335V0.232575C10.1587 0.587363 10.6347 0.999303 11.0601 1.46061ZM17.2762 0.797366C16.7475 0.552249 16.1884 0.37886 15.6138 0.281799C15.467 0.256755 15.3444 0.232575 15.1975 0.232575C15.0444 0.202534 14.8889 0.186062 14.7329 0.18335V0.232575C14.7571 0.256755 14.7813 0.256755 14.8063 0.281799C14.9531 0.380249 15.0749 0.477836 15.2217 0.576285C15.5646 0.846591 15.8824 1.1169 16.176 1.41138C16.543 1.1903 16.9101 0.969221 17.2771 0.798229L17.2762 0.797366Z" fill="#050038"/>
</g>
<defs>
<clipPath id="clip0_0_65">
<rect width="73.4056" height="32.8166" fill="white" transform="translate(0 0.18335)"/>
</clipPath>
</defs>
</svg>
