<svg width="151" height="160" viewBox="0 0 151 160" fill="none" xmlns="http://www.w3.org/2000/svg">
<circle r="2" transform="matrix(0.00572777 -0.999984 -0.999984 -0.00572777 2.21248 156.988)" fill="#3370FF" fill-opacity="0.15"/>
<circle r="2" transform="matrix(0.00572777 -0.999984 -0.999984 -0.00572777 16.0114 157.011)" fill="#3370FF" fill-opacity="0.15"/>
<circle r="2" transform="matrix(-0.99997 -0.00777117 -0.00777117 0.99997 135.016 156.613)" fill="#3370FF" fill-opacity="0.15"/>
<circle r="2" transform="matrix(-0.99997 -0.00777117 -0.00777117 0.99997 135.067 142.814)" fill="#3370FF" fill-opacity="0.15"/>
<circle r="2" transform="matrix(-0.99997 -0.00777117 -0.00777117 0.99997 148.016 156.613)" fill="#3370FF" fill-opacity="0.15"/>
<circle r="2" transform="matrix(-0.99997 -0.00777117 -0.00777117 0.99997 148.067 142.814)" fill="#3370FF" fill-opacity="0.15"/>
<circle r="2" transform="matrix(0.00572777 -0.999984 -0.999984 -0.00572777 2.21248 16.9885)" fill="#3370FF" fill-opacity="0.15"/>
<circle r="2" transform="matrix(0.00572777 -0.999984 -0.999984 -0.00572777 16.0114 17.0114)" fill="#3370FF" fill-opacity="0.15"/>
<circle r="2" transform="matrix(0.00572777 -0.999984 -0.999984 -0.00572777 2.21248 2.98846)" fill="#3370FF" fill-opacity="0.15"/>
<circle r="2" transform="matrix(0.00572777 -0.999984 -0.999984 -0.00572777 16.0114 3.0114)" fill="#3370FF" fill-opacity="0.15"/>
<circle r="2" transform="matrix(0.00572777 -0.999984 -0.999984 -0.00572777 2.01143 143.011)" fill="#3370FF" fill-opacity="0.15"/>
<circle r="2" transform="matrix(0.00572777 -0.999984 -0.999984 -0.00572777 15.8104 143.034)" fill="#3370FF" fill-opacity="0.15"/>
<circle r="2" transform="matrix(0.00572777 -0.999984 -0.999984 -0.00572777 2.01143 129.011)" fill="#3370FF" fill-opacity="0.15"/>
<circle r="2" transform="matrix(0.00572777 -0.999984 -0.999984 -0.00572777 15.8104 129.034)" fill="#3370FF" fill-opacity="0.15"/>
<circle r="2" transform="matrix(0.00572777 -0.999984 -0.999984 -0.00572777 2.01143 115.011)" fill="#3370FF" fill-opacity="0.15"/>
<circle r="2" transform="matrix(0.00572777 -0.999984 -0.999984 -0.00572777 15.8104 115.034)" fill="#3370FF" fill-opacity="0.15"/>
<circle r="2" transform="matrix(0.00572777 -0.999984 -0.999984 -0.00572777 2.01143 101.011)" fill="#3370FF" fill-opacity="0.15"/>
<circle r="2" transform="matrix(0.00572777 -0.999984 -0.999984 -0.00572777 15.8104 101.034)" fill="#3370FF" fill-opacity="0.15"/>
<circle r="2" transform="matrix(0.00572777 -0.999984 -0.999984 -0.00572777 2.01143 87.0114)" fill="#3370FF" fill-opacity="0.15"/>
<circle r="2" transform="matrix(0.00572777 -0.999984 -0.999984 -0.00572777 15.8104 87.0344)" fill="#3370FF" fill-opacity="0.15"/>
<circle r="2" transform="matrix(0.00572777 -0.999984 -0.999984 -0.00572777 2.01143 73.0114)" fill="#3370FF" fill-opacity="0.15"/>
<circle r="2" transform="matrix(0.00572777 -0.999984 -0.999984 -0.00572777 15.8104 73.0344)" fill="#3370FF" fill-opacity="0.15"/>
<circle r="2" transform="matrix(0.00572777 -0.999984 -0.999984 -0.00572777 2.01143 59.0114)" fill="#3370FF" fill-opacity="0.15"/>
<circle r="2" transform="matrix(0.00572777 -0.999984 -0.999984 -0.00572777 15.8104 59.0344)" fill="#3370FF" fill-opacity="0.15"/>
<circle r="2" transform="matrix(0.00572777 -0.999984 -0.999984 -0.00572777 2.01143 45.0114)" fill="#3370FF" fill-opacity="0.15"/>
<circle r="2" transform="matrix(0.00572777 -0.999984 -0.999984 -0.00572777 15.8104 45.0344)" fill="#3370FF" fill-opacity="0.15"/>
<circle r="2" transform="matrix(0.00572777 -0.999984 -0.999984 -0.00572777 2.01143 31.0114)" fill="#3370FF" fill-opacity="0.15"/>
<circle r="2" transform="matrix(0.00572777 -0.999984 -0.999984 -0.00572777 15.8104 31.0344)" fill="#3370FF" fill-opacity="0.15"/>
<circle r="2" transform="matrix(0.00572777 -0.999984 -0.999984 -0.00572777 55.0114 157.011)" fill="#3370FF" fill-opacity="0.15"/>
<circle r="2" transform="matrix(0.00572777 -0.999984 -0.999984 -0.00572777 68.8104 157.034)" fill="#3370FF" fill-opacity="0.15"/>
<circle r="2" transform="matrix(-0.99997 -0.00777117 -0.00777117 0.99997 135.146 103.814)" fill="#3370FF" fill-opacity="0.15"/>
<circle r="2" transform="matrix(-0.99997 -0.00777117 -0.00777117 0.99997 135.198 90.0156)" fill="#3370FF" fill-opacity="0.15"/>
<circle r="2" transform="matrix(-0.99997 -0.00777117 -0.00777117 0.99997 148.146 103.814)" fill="#3370FF" fill-opacity="0.15"/>
<circle r="2" transform="matrix(-0.99997 -0.00777117 -0.00777117 0.99997 148.198 90.0156)" fill="#3370FF" fill-opacity="0.15"/>
<circle r="2" transform="matrix(0.00572777 -0.999984 -0.999984 -0.00572777 55.0114 17.0114)" fill="#3370FF" fill-opacity="0.15"/>
<circle r="2" transform="matrix(0.00572777 -0.999984 -0.999984 -0.00572777 68.8104 17.0344)" fill="#3370FF" fill-opacity="0.15"/>
<circle r="2" transform="matrix(0.00572777 -0.999984 -0.999984 -0.00572777 55.0114 3.0114)" fill="#3370FF" fill-opacity="0.15"/>
<circle r="2" transform="matrix(0.00572777 -0.999984 -0.999984 -0.00572777 68.8104 3.03435)" fill="#3370FF" fill-opacity="0.15"/>
<circle r="2" transform="matrix(0.00572777 -0.999984 -0.999984 -0.00572777 54.8104 143.034)" fill="#3370FF" fill-opacity="0.15"/>
<circle r="2" transform="matrix(0.00572777 -0.999984 -0.999984 -0.00572777 68.6093 143.057)" fill="#3370FF" fill-opacity="0.15"/>
<circle r="2" transform="matrix(0.00572777 -0.999984 -0.999984 -0.00572777 54.8104 129.034)" fill="#3370FF" fill-opacity="0.15"/>
<circle r="2" transform="matrix(0.00572777 -0.999984 -0.999984 -0.00572777 68.6093 129.057)" fill="#3370FF" fill-opacity="0.15"/>
<circle r="2" transform="matrix(0.00572777 -0.999984 -0.999984 -0.00572777 54.8104 115.034)" fill="#3370FF" fill-opacity="0.15"/>
<circle r="2" transform="matrix(0.00572777 -0.999984 -0.999984 -0.00572777 68.6093 115.057)" fill="#3370FF" fill-opacity="0.15"/>
<circle r="2" transform="matrix(0.00572777 -0.999984 -0.999984 -0.00572777 54.8104 101.034)" fill="#3370FF" fill-opacity="0.15"/>
<circle r="2" transform="matrix(0.00572777 -0.999984 -0.999984 -0.00572777 68.6093 101.057)" fill="#3370FF" fill-opacity="0.15"/>
<circle r="2" transform="matrix(0.00572777 -0.999984 -0.999984 -0.00572777 54.8104 87.0344)" fill="#3370FF" fill-opacity="0.15"/>
<circle r="2" transform="matrix(0.00572777 -0.999984 -0.999984 -0.00572777 68.6093 87.0573)" fill="#3370FF" fill-opacity="0.15"/>
<circle r="2" transform="matrix(0.00572777 -0.999984 -0.999984 -0.00572777 54.8104 73.0344)" fill="#3370FF" fill-opacity="0.15"/>
<circle r="2" transform="matrix(0.00572777 -0.999984 -0.999984 -0.00572777 68.6093 73.0573)" fill="#3370FF" fill-opacity="0.15"/>
<circle r="2" transform="matrix(0.00572777 -0.999984 -0.999984 -0.00572777 54.8104 59.0344)" fill="#3370FF" fill-opacity="0.15"/>
<circle r="2" transform="matrix(0.00572777 -0.999984 -0.999984 -0.00572777 68.6093 59.0573)" fill="#3370FF" fill-opacity="0.15"/>
<circle r="2" transform="matrix(0.00572777 -0.999984 -0.999984 -0.00572777 54.8104 45.0344)" fill="#3370FF" fill-opacity="0.15"/>
<circle r="2" transform="matrix(0.00572777 -0.999984 -0.999984 -0.00572777 68.6093 45.0573)" fill="#3370FF" fill-opacity="0.15"/>
<circle r="2" transform="matrix(0.00572777 -0.999984 -0.999984 -0.00572777 54.8104 31.0344)" fill="#3370FF" fill-opacity="0.15"/>
<circle r="2" transform="matrix(0.00572777 -0.999984 -0.999984 -0.00572777 68.6093 31.0573)" fill="#3370FF" fill-opacity="0.15"/>
<circle r="2" transform="matrix(0.00572777 -0.999984 -0.999984 -0.00572777 28.0114 157.011)" fill="#3370FF" fill-opacity="0.15"/>
<circle r="2" transform="matrix(0.00572777 -0.999984 -0.999984 -0.00572777 41.8104 157.034)" fill="#3370FF" fill-opacity="0.15"/>
<circle r="2" transform="matrix(-0.99997 -0.00777117 -0.00777117 0.99997 135.091 130.814)" fill="#3370FF" fill-opacity="0.15"/>
<circle r="2" transform="matrix(-0.99997 -0.00777117 -0.00777117 0.99997 135.142 117.015)" fill="#3370FF" fill-opacity="0.15"/>
<circle r="2" transform="matrix(-0.99997 -0.00777117 -0.00777117 0.99997 148.091 130.814)" fill="#3370FF" fill-opacity="0.15"/>
<circle r="2" transform="matrix(-0.99997 -0.00777117 -0.00777117 0.99997 148.142 117.015)" fill="#3370FF" fill-opacity="0.15"/>
<circle r="2" transform="matrix(0.00572777 -0.999984 -0.999984 -0.00572777 28.0114 17.0114)" fill="#3370FF" fill-opacity="0.15"/>
<circle r="2" transform="matrix(0.00572777 -0.999984 -0.999984 -0.00572777 41.8104 17.0344)" fill="#3370FF" fill-opacity="0.15"/>
<circle r="2" transform="matrix(0.00572777 -0.999984 -0.999984 -0.00572777 28.0114 3.0114)" fill="#3370FF" fill-opacity="0.15"/>
<circle r="2" transform="matrix(0.00572777 -0.999984 -0.999984 -0.00572777 41.8104 3.03435)" fill="#3370FF" fill-opacity="0.15"/>
<circle r="2" transform="matrix(0.00572777 -0.999984 -0.999984 -0.00572777 27.8104 143.034)" fill="#3370FF" fill-opacity="0.15"/>
<circle r="2" transform="matrix(0.00572777 -0.999984 -0.999984 -0.00572777 41.6093 143.057)" fill="#3370FF" fill-opacity="0.15"/>
<circle r="2" transform="matrix(0.00572777 -0.999984 -0.999984 -0.00572777 27.8104 129.034)" fill="#3370FF" fill-opacity="0.15"/>
<circle r="2" transform="matrix(0.00572777 -0.999984 -0.999984 -0.00572777 41.6093 129.057)" fill="#3370FF" fill-opacity="0.15"/>
<circle r="2" transform="matrix(0.00572777 -0.999984 -0.999984 -0.00572777 27.8104 115.034)" fill="#3370FF" fill-opacity="0.15"/>
<circle r="2" transform="matrix(0.00572777 -0.999984 -0.999984 -0.00572777 41.6093 115.057)" fill="#3370FF" fill-opacity="0.15"/>
<circle r="2" transform="matrix(0.00572777 -0.999984 -0.999984 -0.00572777 27.8104 101.034)" fill="#3370FF" fill-opacity="0.15"/>
<circle r="2" transform="matrix(0.00572777 -0.999984 -0.999984 -0.00572777 41.6093 101.057)" fill="#3370FF" fill-opacity="0.15"/>
<circle r="2" transform="matrix(0.00572777 -0.999984 -0.999984 -0.00572777 27.8104 87.0344)" fill="#3370FF" fill-opacity="0.15"/>
<circle r="2" transform="matrix(0.00572777 -0.999984 -0.999984 -0.00572777 41.6093 87.0573)" fill="#3370FF" fill-opacity="0.15"/>
<circle r="2" transform="matrix(0.00572777 -0.999984 -0.999984 -0.00572777 27.8104 73.0344)" fill="#3370FF" fill-opacity="0.15"/>
<circle r="2" transform="matrix(0.00572777 -0.999984 -0.999984 -0.00572777 41.6093 73.0573)" fill="#3370FF" fill-opacity="0.15"/>
<circle r="2" transform="matrix(0.00572777 -0.999984 -0.999984 -0.00572777 27.8104 59.0344)" fill="#3370FF" fill-opacity="0.15"/>
<circle r="2" transform="matrix(0.00572777 -0.999984 -0.999984 -0.00572777 41.6093 59.0573)" fill="#3370FF" fill-opacity="0.15"/>
<circle r="2" transform="matrix(0.00572777 -0.999984 -0.999984 -0.00572777 27.8104 45.0344)" fill="#3370FF" fill-opacity="0.15"/>
<circle r="2" transform="matrix(0.00572777 -0.999984 -0.999984 -0.00572777 41.6093 45.0573)" fill="#3370FF" fill-opacity="0.15"/>
<circle r="2" transform="matrix(0.00572777 -0.999984 -0.999984 -0.00572777 27.8104 31.0344)" fill="#3370FF" fill-opacity="0.15"/>
<circle r="2" transform="matrix(0.00572777 -0.999984 -0.999984 -0.00572777 41.6093 31.0573)" fill="#3370FF" fill-opacity="0.15"/>
<circle r="2" transform="matrix(0.00572777 -0.999984 -0.999984 -0.00572777 80.8104 157.034)" fill="#3370FF" fill-opacity="0.15"/>
<circle r="2" transform="matrix(0.00572777 -0.999984 -0.999984 -0.00572777 94.6093 157.057)" fill="#3370FF" fill-opacity="0.15"/>
<circle r="2" transform="matrix(-0.99997 -0.00777117 -0.00777117 0.99997 135.222 78.0154)" fill="#3370FF" fill-opacity="0.15"/>
<circle r="2" transform="matrix(-0.99997 -0.00777117 -0.00777117 0.99997 135.273 64.2165)" fill="#3370FF" fill-opacity="0.15"/>
<circle r="2" transform="matrix(-0.99997 -0.00777117 -0.00777117 0.99997 148.222 78.0154)" fill="#3370FF" fill-opacity="0.15"/>
<circle r="2" transform="matrix(-0.99997 -0.00777117 -0.00777117 0.99997 148.273 64.2165)" fill="#3370FF" fill-opacity="0.15"/>
<circle r="2" transform="matrix(0.00572777 -0.999984 -0.999984 -0.00572777 80.8104 17.0344)" fill="#3370FF" fill-opacity="0.15"/>
<circle r="2" transform="matrix(0.00572777 -0.999984 -0.999984 -0.00572777 94.6093 17.0573)" fill="#3370FF" fill-opacity="0.15"/>
<circle r="2" transform="matrix(0.00572777 -0.999984 -0.999984 -0.00572777 80.8104 3.03435)" fill="#3370FF" fill-opacity="0.15"/>
<circle r="2" transform="matrix(0.00572777 -0.999984 -0.999984 -0.00572777 94.6093 3.0573)" fill="#3370FF" fill-opacity="0.15"/>
<circle r="2" transform="matrix(0.00572777 -0.999984 -0.999984 -0.00572777 80.6093 143.057)" fill="#3370FF" fill-opacity="0.15"/>
<circle r="2" transform="matrix(0.00572777 -0.999984 -0.999984 -0.00572777 94.4083 143.08)" fill="#3370FF" fill-opacity="0.15"/>
<circle r="2" transform="matrix(0.00572777 -0.999984 -0.999984 -0.00572777 80.6093 129.057)" fill="#3370FF" fill-opacity="0.15"/>
<circle r="2" transform="matrix(0.00572777 -0.999984 -0.999984 -0.00572777 94.4083 129.08)" fill="#3370FF" fill-opacity="0.15"/>
<circle r="2" transform="matrix(0.00572777 -0.999984 -0.999984 -0.00572777 80.6093 115.057)" fill="#3370FF" fill-opacity="0.15"/>
<circle r="2" transform="matrix(0.00572777 -0.999984 -0.999984 -0.00572777 94.4083 115.08)" fill="#3370FF" fill-opacity="0.15"/>
<circle r="2" transform="matrix(0.00572777 -0.999984 -0.999984 -0.00572777 80.6093 101.057)" fill="#3370FF" fill-opacity="0.15"/>
<circle r="2" transform="matrix(0.00572777 -0.999984 -0.999984 -0.00572777 94.4083 101.08)" fill="#3370FF" fill-opacity="0.15"/>
<circle r="2" transform="matrix(0.00572777 -0.999984 -0.999984 -0.00572777 80.6093 87.0573)" fill="#3370FF" fill-opacity="0.15"/>
<circle r="2" transform="matrix(0.00572777 -0.999984 -0.999984 -0.00572777 94.4083 87.0803)" fill="#3370FF" fill-opacity="0.15"/>
<circle r="2" transform="matrix(0.00572777 -0.999984 -0.999984 -0.00572777 80.6093 73.0573)" fill="#3370FF" fill-opacity="0.15"/>
<circle r="2" transform="matrix(0.00572777 -0.999984 -0.999984 -0.00572777 94.4083 73.0803)" fill="#3370FF" fill-opacity="0.15"/>
<circle r="2" transform="matrix(0.00572777 -0.999984 -0.999984 -0.00572777 80.6093 59.0573)" fill="#3370FF" fill-opacity="0.15"/>
<circle r="2" transform="matrix(0.00572777 -0.999984 -0.999984 -0.00572777 94.4083 59.0803)" fill="#3370FF" fill-opacity="0.15"/>
<circle r="2" transform="matrix(0.00572777 -0.999984 -0.999984 -0.00572777 80.6093 45.0573)" fill="#3370FF" fill-opacity="0.15"/>
<circle r="2" transform="matrix(0.00572777 -0.999984 -0.999984 -0.00572777 94.4083 45.0803)" fill="#3370FF" fill-opacity="0.15"/>
<circle r="2" transform="matrix(0.00572777 -0.999984 -0.999984 -0.00572777 80.6093 31.0573)" fill="#3370FF" fill-opacity="0.15"/>
<circle r="2" transform="matrix(0.00572777 -0.999984 -0.999984 -0.00572777 94.4083 31.0803)" fill="#3370FF" fill-opacity="0.15"/>
<circle r="2" transform="matrix(0.00572777 -0.999984 -0.999984 -0.00572777 108.011 157.011)" fill="#3370FF" fill-opacity="0.15"/>
<circle r="2" transform="matrix(0.00572777 -0.999984 -0.999984 -0.00572777 121.81 157.034)" fill="#3370FF" fill-opacity="0.15"/>
<circle r="2" transform="matrix(-0.99997 -0.00777117 -0.00777117 0.99997 135.255 50.8145)" fill="#3370FF" fill-opacity="0.15"/>
<circle r="2" transform="matrix(-0.99997 -0.00777117 -0.00777117 0.99997 135.306 37.0156)" fill="#3370FF" fill-opacity="0.15"/>
<circle r="2" transform="matrix(-0.99997 -0.00777117 -0.00777117 0.99997 148.255 50.8145)" fill="#3370FF" fill-opacity="0.15"/>
<circle r="2" transform="matrix(-0.99997 -0.00777117 -0.00777117 0.99997 148.306 37.0156)" fill="#3370FF" fill-opacity="0.15"/>
<circle r="2" transform="matrix(0.00572777 -0.999984 -0.999984 -0.00572777 108.011 17.0114)" fill="#3370FF" fill-opacity="0.15"/>
<circle r="2" transform="matrix(0.00572777 -0.999984 -0.999984 -0.00572777 121.81 17.0344)" fill="#3370FF" fill-opacity="0.15"/>
<circle r="2" transform="matrix(0.00572777 -0.999984 -0.999984 -0.00572777 108.011 3.0114)" fill="#3370FF" fill-opacity="0.15"/>
<circle r="2" transform="matrix(0.00572777 -0.999984 -0.999984 -0.00572777 121.81 3.03435)" fill="#3370FF" fill-opacity="0.15"/>
<circle r="2" transform="matrix(0.00572777 -0.999984 -0.999984 -0.00572777 107.81 143.034)" fill="#3370FF" fill-opacity="0.15"/>
<circle r="2" transform="matrix(0.00572777 -0.999984 -0.999984 -0.00572777 121.609 143.057)" fill="#3370FF" fill-opacity="0.15"/>
<circle r="2" transform="matrix(0.00572777 -0.999984 -0.999984 -0.00572777 107.81 129.034)" fill="#3370FF" fill-opacity="0.15"/>
<circle r="2" transform="matrix(0.00572777 -0.999984 -0.999984 -0.00572777 121.609 129.057)" fill="#3370FF" fill-opacity="0.15"/>
<circle r="2" transform="matrix(0.00572777 -0.999984 -0.999984 -0.00572777 107.81 115.034)" fill="#3370FF" fill-opacity="0.15"/>
<circle r="2" transform="matrix(0.00572777 -0.999984 -0.999984 -0.00572777 121.609 115.057)" fill="#3370FF" fill-opacity="0.15"/>
<circle r="2" transform="matrix(0.00572777 -0.999984 -0.999984 -0.00572777 107.81 101.034)" fill="#3370FF" fill-opacity="0.15"/>
<circle r="2" transform="matrix(0.00572777 -0.999984 -0.999984 -0.00572777 121.609 101.057)" fill="#3370FF" fill-opacity="0.15"/>
<circle r="2" transform="matrix(0.00572777 -0.999984 -0.999984 -0.00572777 107.81 87.0344)" fill="#3370FF" fill-opacity="0.15"/>
<circle r="2" transform="matrix(0.00572777 -0.999984 -0.999984 -0.00572777 121.609 87.0573)" fill="#3370FF" fill-opacity="0.15"/>
<circle r="2" transform="matrix(0.00572777 -0.999984 -0.999984 -0.00572777 107.81 73.0344)" fill="#3370FF" fill-opacity="0.15"/>
<circle r="2" transform="matrix(0.00572777 -0.999984 -0.999984 -0.00572777 121.609 73.0573)" fill="#3370FF" fill-opacity="0.15"/>
<circle r="2" transform="matrix(0.00572777 -0.999984 -0.999984 -0.00572777 107.81 59.0344)" fill="#3370FF" fill-opacity="0.15"/>
<circle r="2" transform="matrix(0.00572777 -0.999984 -0.999984 -0.00572777 121.609 59.0573)" fill="#3370FF" fill-opacity="0.15"/>
<circle r="2" transform="matrix(0.00572777 -0.999984 -0.999984 -0.00572777 107.81 45.0344)" fill="#3370FF" fill-opacity="0.15"/>
<circle r="2" transform="matrix(0.00572777 -0.999984 -0.999984 -0.00572777 121.609 45.0573)" fill="#3370FF" fill-opacity="0.15"/>
<circle r="2" transform="matrix(0.00572777 -0.999984 -0.999984 -0.00572777 107.81 31.0344)" fill="#3370FF" fill-opacity="0.15"/>
<circle r="2" transform="matrix(0.00572777 -0.999984 -0.999984 -0.00572777 121.609 31.0573)" fill="#3370FF" fill-opacity="0.15"/>
</svg>
