<svg width="25" height="21" viewBox="0 0 25 21" fill="none" xmlns="http://www.w3.org/2000/svg">
<path d="M25 2.74844C24.0703 3.15625 23.0797 3.42656 22.0469 3.55781C23.1094 2.92344 23.9203 1.92656 24.3016 0.725C23.3109 1.31562 22.2172 1.73281 21.0516 1.96563C20.1109 0.964063 18.7703 0.34375 17.3078 0.34375C14.4703 0.34375 12.1859 2.64688 12.1859 5.47031C12.1859 5.87656 12.2203 6.26719 12.3047 6.63906C8.04375 6.43125 4.27344 4.38906 1.74062 1.27813C1.29844 2.04531 1.03906 2.92344 1.03906 3.86875C1.03906 5.64375 1.95312 7.21719 3.31562 8.12812C2.49219 8.1125 1.68437 7.87344 1 7.49688C1 7.5125 1 7.53281 1 7.55312C1 10.0437 2.77656 12.1125 5.10625 12.5891C4.68906 12.7031 4.23438 12.7578 3.7625 12.7578C3.43438 12.7578 3.10312 12.7391 2.79219 12.6703C3.45625 14.7 5.34063 16.1922 7.58125 16.2406C5.8375 17.6047 3.62344 18.4266 1.22656 18.4266C0.80625 18.4266 0.403125 18.4078 0 18.3563C2.27031 19.8203 4.96094 20.6562 7.8625 20.6562C17.2937 20.6562 22.45 12.8438 22.45 6.07187C22.45 5.84531 22.4422 5.62656 22.4312 5.40938C23.4484 4.6875 24.3031 3.78594 25 2.74844Z" fill="#03A9F4"/>
</svg>
