<svg width="189" height="24" viewBox="0 0 189 24" fill="none" xmlns="http://www.w3.org/2000/svg">
<g clip-path="url(#clip0_0_54)">
<path d="M7.3602 11.0026C7.29158 10.9135 7.20119 10.8434 7.0977 10.7993C6.99421 10.7551 6.88111 10.7383 6.76925 10.7504C6.65739 10.7626 6.55053 10.8032 6.45893 10.8686C6.36733 10.9339 6.29406 11.0217 6.24616 11.1235L0.595661 22.4194C0.544538 22.5222 0.520504 22.6365 0.525831 22.7512C0.531159 22.866 0.565672 22.9775 0.626106 23.0752C0.686541 23.1729 0.770898 23.2535 0.871201 23.3095C0.971504 23.3655 1.08444 23.395 1.19931 23.3952H9.0658C9.19178 23.3983 9.31594 23.3648 9.42325 23.2987C9.53055 23.2327 9.61638 23.1369 9.67032 23.023C11.3664 19.5168 10.3379 14.185 7.35934 11.0018L7.3602 11.0026Z" fill="#050038"/>
<path d="M11.5029 0.727629C10.0953 2.89361 9.27508 5.38833 9.12262 7.96698C8.97016 10.5456 9.49073 13.1196 10.6332 15.4364L14.4262 23.0213C14.4822 23.1334 14.5684 23.2277 14.675 23.2936C14.7816 23.3594 14.9045 23.3944 15.0298 23.3944H22.8946C23.0096 23.3944 23.1228 23.3651 23.2233 23.3091C23.3239 23.2531 23.4084 23.1723 23.469 23.0745C23.5295 22.9766 23.5641 22.865 23.5694 22.75C23.5746 22.6351 23.5504 22.5207 23.4991 22.4177L12.6523 0.723311C12.5999 0.615377 12.518 0.524441 12.4162 0.460966C12.3144 0.397491 12.1967 0.364055 12.0767 0.364506C11.9567 0.364958 11.8393 0.399277 11.7379 0.463516C11.6365 0.527755 11.5554 0.619304 11.5037 0.727629H11.5029ZM103.757 9.78502C103.757 12.5831 105.054 14.8025 110.13 15.7835C113.158 16.4192 113.792 16.9079 113.792 17.9166C113.792 18.8977 113.157 19.5316 111.024 19.5316C108.446 19.4856 105.92 18.8023 103.671 17.5427V22.0982C105.199 22.8478 107.217 23.6846 110.966 23.6846C116.272 23.6846 118.377 21.3183 118.377 17.8018L103.757 9.78502ZM118.377 17.8018C118.377 14.4856 116.618 12.9285 111.658 11.862C108.919 11.2557 108.256 10.6503 108.256 9.78502C108.256 8.69084 109.236 8.22795 111.052 8.22795C113.244 8.22795 115.407 8.8912 117.454 9.81438V5.46013C115.491 4.56646 113.353 4.12298 111.196 4.16215C106.295 4.16215 103.757 6.29609 103.757 9.78502L118.377 17.8018ZM171.922 4.44972V23.3953H175.958V8.94906L177.66 12.7834L183.37 23.3953H188.445V4.44972H184.408V16.6765L182.879 13.1297L178.294 4.45059H171.922V4.44972ZM146.246 4.44972H141.834V23.3953H146.246V4.44972ZM136.745 17.8009C136.745 14.4847 134.986 12.9276 130.026 11.8611C127.287 11.2566 126.624 10.6503 126.624 9.78502C126.624 8.69084 127.604 8.22795 129.421 8.22795C131.613 8.22795 133.775 8.8912 135.823 9.81438V5.46013C133.86 4.56646 131.722 4.12298 129.565 4.16215C124.662 4.16215 122.125 6.29609 122.125 9.78502C122.125 12.5831 123.423 14.8025 128.498 15.7835C131.526 16.4192 132.16 16.9079 132.16 17.9166C132.16 18.8977 131.524 19.5316 129.391 19.5316C126.814 19.4853 124.288 18.8021 122.039 17.5427V22.0982C123.567 22.8478 125.586 23.6846 129.334 23.6846C134.64 23.6846 136.745 21.3183 136.745 17.8018V17.8009ZM69.4847 4.44972V23.3953H78.5524L79.9799 19.301H73.9253V4.44972H69.4847ZM51.5677 4.44972V8.54489H56.4703V23.3953H60.9109V8.54489H66.1581V4.44972H51.5677ZM45.1296 4.44972H39.3107L32.7041 23.3953H37.7493L38.6854 20.2052C40.992 20.8825 43.4447 20.8825 45.7513 20.2052L46.6884 23.3953H51.7343L45.1296 4.44972ZM42.2192 16.7879C41.3978 16.7879 40.5807 16.6704 39.7925 16.439L42.2192 8.17096L44.6477 16.4416C43.8591 16.6722 43.0417 16.7888 42.2201 16.7879H42.2192ZM94.1861 4.44972H88.3663L81.7598 23.3953H86.8067L87.7428 20.2052C90.0494 20.8825 92.5021 20.8825 94.8087 20.2052L95.7457 23.3953H100.792L94.1861 4.44972ZM91.2766 16.7879C90.4547 16.788 89.6369 16.6705 88.8482 16.439L91.2766 8.17096L93.7042 16.4416C92.9157 16.6722 92.0982 16.7888 91.2766 16.7879ZM162.143 4.44972H156.324L149.718 23.3953H154.764L155.701 20.2052C158.007 20.8825 160.46 20.8825 162.767 20.2052L163.703 23.3953H168.75L162.143 4.44972ZM159.232 16.7879C158.41 16.788 157.593 16.6705 156.805 16.439L159.232 8.17096L161.66 16.4416C160.871 16.6722 160.054 16.7888 159.232 16.7879Z" fill="#050038"/>
</g>
<defs>
<clipPath id="clip0_0_54">
<rect width="188.264" height="23.3171" fill="white" transform="translate(0.524841 0.364868)"/>
</clipPath>
</defs>
</svg>
