<svg width="102" height="31" viewBox="0 0 102 31" fill="none" xmlns="http://www.w3.org/2000/svg">
<g clip-path="url(#clip0_0_50)">
<path d="M0.679504 6.87427H4.19756V14.6606H11.6176V6.87518H15.1403V25.988H11.6176V18.0377H4.19756V25.988H0.679504V6.87427ZM26.286 19.7615C26.2847 20.5315 25.9773 21.2696 25.4311 21.8139C24.8849 22.3582 24.1445 22.6643 23.3723 22.665C22.6 22.6645 21.8593 22.3585 21.3129 21.8142C20.7665 21.2699 20.459 20.5316 20.4578 19.7615V11.5336H17.1197V19.7624C17.1197 23.1953 19.9241 25.988 23.3705 25.988C26.8169 25.988 29.6203 23.1953 29.6203 19.7624V11.5336H26.286V19.7624V19.7615ZM38.9362 11.6298C37.281 11.6298 36.1255 12.1079 35.0094 13.1988V6.87427H31.6622V18.5955C31.6622 22.9828 34.8469 25.9871 38.4246 25.9871C42.4019 25.9871 45.8869 22.9297 45.8869 18.8089C45.8869 14.7403 42.6729 11.6298 38.9362 11.6298ZM39.0189 22.9031C36.7501 22.9031 35.0168 21.0163 35.0168 18.8089C35.0168 16.6015 36.751 14.7147 39.0189 14.7147C40.9414 14.7147 42.6766 16.6015 42.6766 18.8089C42.6766 21.0163 40.9405 22.9031 39.0189 22.9031ZM51.5085 12.4697C51.5085 10.7936 52.6291 10.2623 53.8572 10.2623C54.8456 10.2623 56.1536 11.007 57.006 11.911L59.1949 9.35828C58.1009 7.89645 55.8863 6.88526 54.0712 6.88526C50.4402 6.88526 47.8251 8.98641 47.8251 12.4697C47.8251 18.9307 55.8054 16.8827 55.8054 20.4997C55.8054 21.6153 54.7124 22.5999 53.4576 22.5999C51.4827 22.5999 50.8407 21.6428 49.9341 20.6316L47.5045 23.1312C49.0532 25.0189 50.9748 25.977 53.2702 25.977C56.713 25.977 59.4888 23.8493 59.4888 20.5254C59.4888 13.3463 51.5085 15.5802 51.5085 12.4697ZM68.3014 11.442C64.7246 11.442 61.54 14.4454 61.54 18.8336V30.5851H64.8872V24.2312C66.0032 25.3212 67.1578 25.8011 68.813 25.8011C72.5497 25.8011 75.7637 22.6906 75.7637 18.622C75.7637 14.5003 72.2778 11.4429 68.3014 11.4429V11.442ZM68.8966 22.7163C66.6278 22.7163 64.8936 20.8267 64.8936 18.6211C64.8936 16.4137 66.6287 14.526 68.8966 14.526C70.8182 14.526 72.5534 16.4128 72.5534 18.6202C72.5534 20.8267 70.8173 22.7163 68.8966 22.7163ZM100.403 22.9031C98.4281 22.9031 97.8677 22.0522 97.8677 20.7488V14.9803H100.937V12.0566H97.8677V8.20054L94.4792 9.7155V21.4679C94.4792 24.4721 96.5606 25.9889 99.4146 25.9889C99.8417 25.9889 100.43 25.9614 100.751 25.8827L101.578 22.8509C101.205 22.8775 100.778 22.904 100.403 22.904V22.9031Z" fill="#050038"/>
<path d="M91.5766 15.1525C90.9336 14.0524 90.0316 13.1704 88.9036 12.5072C88.0744 12.0185 87.1551 11.7011 86.2003 11.5739V8.07961C86.678 7.88216 87.0854 7.54653 87.3699 7.11602C87.6545 6.68551 87.8031 6.17986 87.7968 5.66429C87.7968 4.19696 86.6164 3.00808 85.1449 3.00808C84.4373 3.00735 83.7583 3.28664 83.2569 3.78465C82.7556 4.28266 82.4729 4.95867 82.471 5.66429C82.471 6.74051 83.0469 7.66286 84.0325 8.07961V11.5757C83.214 11.6934 82.4197 11.9414 81.6801 12.3103C78.5308 9.92649 75.3807 7.54353 72.2301 5.16144C72.3065 4.90935 72.3479 4.64802 72.3532 4.38473C72.3532 3.99823 72.2768 3.61552 72.1284 3.25846C71.98 2.9014 71.7625 2.577 71.4884 2.30379C71.2142 2.03058 70.8887 1.81391 70.5306 1.66617C70.1724 1.51843 69.7885 1.44251 69.4009 1.44275C69.0135 1.44281 68.6298 1.51897 68.2719 1.66687C67.914 1.81477 67.5887 2.03153 67.3148 2.30476C67.0409 2.57799 66.8236 2.90235 66.6754 3.25931C66.5272 3.61627 66.4509 3.99884 66.451 4.38519C66.4511 4.77154 66.5274 5.15409 66.6758 5.511C66.8241 5.86792 67.0415 6.1922 67.3155 6.46535C67.5895 6.73849 67.9148 6.95515 68.2728 7.10294C68.6307 7.25073 69.0144 7.32677 69.4019 7.32671C69.9585 7.32671 70.4738 7.16459 70.9175 6.89805L71.5347 7.36518L80.0166 13.4516C79.557 13.8643 79.1534 14.3351 78.8161 14.852C78.1391 15.9191 77.7258 17.0933 77.7258 18.3738V18.6403C77.7258 19.5398 77.8975 20.3879 78.1896 21.1857C78.4468 21.8818 78.8225 22.5138 79.2882 23.0872L76.4738 25.8982C76.0659 25.7471 75.623 25.7161 75.1979 25.809C74.7728 25.9019 74.3835 26.1147 74.0764 26.4221C73.8638 26.6326 73.6952 26.883 73.5804 27.159C73.4656 27.4349 73.4069 27.7308 73.4077 28.0296C73.4077 28.6368 73.6465 29.2075 74.0773 29.637C74.2886 29.8489 74.54 30.0168 74.8169 30.1311C75.0937 30.2454 75.3906 30.3038 75.6903 30.3029C75.9902 30.3038 76.2873 30.2454 76.5645 30.1311C76.8416 30.0168 77.0933 29.8489 77.3051 29.637C77.6009 29.3439 77.81 28.975 77.9094 28.571C78.0087 28.1671 77.9944 27.7436 77.8681 27.3472L80.7772 24.4483C81.1758 24.7231 81.6066 24.9539 82.0705 25.1535C82.9836 25.5474 83.9921 25.7865 85.0953 25.7865H85.2974C86.5035 25.7924 87.6914 25.4933 88.7502 24.9172C89.861 24.324 90.7945 23.4484 91.4563 22.3792C92.1332 21.2984 92.5071 20.1058 92.5071 18.7924V18.7273C92.5071 17.4359 92.2067 16.2442 91.5766 15.1525ZM88.0218 21.2324C87.2319 22.1071 86.3234 22.6457 85.2974 22.6457H85.1284C84.5423 22.6457 83.9692 22.4836 83.4079 22.1905C82.775 21.8672 82.2946 21.4065 81.9015 20.823C81.4937 20.2496 81.2732 19.624 81.2732 18.9609V18.7594C81.2732 18.1082 81.3991 17.4899 81.715 16.9056C82.0405 16.282 82.5245 15.7545 83.1186 15.3759C83.6928 14.9908 84.3702 14.7874 85.0622 14.7925H85.1284C85.7714 14.7925 86.3813 14.9189 86.9563 15.212C87.5378 15.517 88.0319 15.9646 88.392 16.5126C88.753 17.075 88.967 17.6813 89.0359 18.3417C89.0469 18.4791 89.0524 18.6193 89.0524 18.7539C89.0524 19.6497 88.7089 20.4795 88.0209 21.2324H88.0218Z" fill="#050038"/>
</g>
<defs>
<clipPath id="clip0_0_50">
<rect width="101.041" height="30.2258" fill="white" transform="translate(0.668488 0.77417)"/>
</clipPath>
</defs>
</svg>
