<svg width="132" height="20" viewBox="0 0 132 20" fill="none" xmlns="http://www.w3.org/2000/svg">
<g clip-path="url(#clip0_0_61)">
<path fill-rule="evenodd" clip-rule="evenodd" d="M47.4471 0.543887C47.4471 0.580158 47.2571 0.606929 47.0024 0.606929C46.7485 0.606929 46.5585 0.634564 46.5585 0.670835C46.5585 0.705379 46.4151 0.733877 46.2407 0.733877C46.0662 0.733877 45.9229 0.762376 45.9229 0.797783C45.9229 0.832327 45.8089 0.860826 45.669 0.860826C45.5299 0.860826 45.4151 0.889325 45.4151 0.924732C45.4151 0.959276 45.3296 0.987774 45.2251 0.987774C45.1206 0.987774 45.0351 1.01627 45.0351 1.05168C45.0351 1.08622 44.9487 1.11472 44.8442 1.11472C44.7389 1.11472 44.6542 1.14322 44.6542 1.17863C44.6542 1.21317 44.5679 1.24167 44.4634 1.24167C44.358 1.24167 44.2725 1.27017 44.2725 1.30558C44.2725 1.34012 44.2155 1.36862 44.1456 1.36862C44.0765 1.36862 44.0186 1.39798 44.0186 1.43253C44.0186 1.46707 43.9616 1.49557 43.8917 1.49557C43.8226 1.49557 43.7647 1.52493 43.7647 1.55947C43.7647 1.59402 43.7077 1.62252 43.6378 1.62252C43.5678 1.62252 43.5108 1.65188 43.5108 1.68642C43.5108 1.72097 43.4538 1.75033 43.3839 1.75033C43.3139 1.75033 43.2569 1.77883 43.2569 1.81337C43.2569 1.84792 43.2051 1.87728 43.1438 1.87728C43.0816 1.87728 42.9901 1.93427 42.9391 2.00423C42.8891 2.07331 42.8036 2.13117 42.7492 2.13117C42.6947 2.13117 42.6084 2.18817 42.5592 2.25812C42.5073 2.32721 42.427 2.38507 42.3795 2.38507C42.3312 2.38507 42.212 2.47057 42.1144 2.57506C42.016 2.68042 41.9046 2.76505 41.8657 2.76505C41.7733 2.76505 40.4632 4.07599 40.4632 4.16753C40.4632 4.20639 40.3769 4.31866 40.2732 4.41625C40.1679 4.51383 40.0824 4.63387 40.0824 4.68137C40.0824 4.72973 40.0254 4.81091 39.9554 4.861C39.8863 4.91109 39.8285 5.00349 39.8285 5.06567C39.8285 5.12699 39.8 5.17794 39.7646 5.17794C39.73 5.17794 39.7015 5.23494 39.7015 5.30489C39.7015 5.37484 39.673 5.43184 39.6376 5.43184C39.6031 5.43184 39.5746 5.4897 39.5746 5.55878C39.5746 5.62874 39.5461 5.68573 39.5107 5.68573C39.4761 5.68573 39.4476 5.74359 39.4476 5.81268C39.4476 5.88263 39.4191 5.94049 39.3837 5.94049C39.3492 5.94049 39.3207 5.99749 39.3207 6.06744C39.3207 6.13653 39.2922 6.19439 39.2568 6.19439C39.2222 6.19439 39.1937 6.27989 39.1937 6.38438C39.1937 6.48888 39.1652 6.57437 39.1298 6.57437C39.0953 6.57437 39.0668 6.63223 39.0668 6.70218C39.0668 6.77127 39.0383 6.82913 39.0029 6.82913C38.9683 6.82913 38.9398 6.91463 38.9398 7.01912C38.9398 7.12448 38.9113 7.20912 38.8759 7.20912C38.8414 7.20912 38.8129 7.29547 38.8129 7.39997C38.8129 7.50533 38.7844 7.58996 38.749 7.58996C38.7144 7.58996 38.6859 7.73332 38.6859 7.90776C38.6859 8.08307 38.6574 8.22557 38.622 8.22557C38.5858 8.22557 38.559 8.41556 38.559 8.67032C38.559 8.92421 38.5314 9.11421 38.4951 9.11421C38.4554 9.11421 38.432 9.51664 38.432 10.1937C38.432 10.8708 38.4554 11.2732 38.4951 11.2732C38.5322 11.2732 38.559 11.4848 38.559 11.781C38.559 12.0772 38.5849 12.2888 38.622 12.2888C38.6566 12.2888 38.6859 12.4028 38.6859 12.5427C38.6859 12.6826 38.7144 12.7966 38.749 12.7966C38.7835 12.7966 38.8129 12.9114 38.8129 13.0505C38.8129 13.1904 38.8414 13.3044 38.8759 13.3044C38.9105 13.3044 38.9398 13.3907 38.9398 13.4944C38.9398 13.5997 38.9683 13.6852 39.0029 13.6852C39.0374 13.6852 39.0668 13.7422 39.0668 13.8122C39.0668 13.8821 39.0953 13.9391 39.1298 13.9391C39.1644 13.9391 39.1937 14.0255 39.1937 14.13C39.1937 14.2345 39.2222 14.32 39.2568 14.32C39.2913 14.32 39.3207 14.3778 39.3207 14.4469C39.3207 14.5169 39.3492 14.5747 39.3837 14.5747C39.4183 14.5747 39.4476 14.6317 39.4476 14.7017C39.4476 14.7708 39.4761 14.8286 39.5107 14.8286C39.5452 14.8286 39.5746 14.8856 39.5746 14.9556C39.5746 15.0247 39.6031 15.0825 39.6376 15.0825C39.6722 15.0825 39.7015 15.1335 39.7015 15.1948C39.7015 15.257 39.7585 15.3494 39.8285 15.3995C39.8976 15.4504 39.9554 15.5359 39.9554 15.5894C39.9554 15.6447 40.0124 15.7302 40.0824 15.7803C40.1515 15.8313 40.2093 15.9107 40.2093 15.9582C40.2093 16.0057 40.3233 16.1542 40.4632 16.289C40.6031 16.4228 40.7171 16.5636 40.7171 16.6024C40.7171 16.6931 41.5194 17.4945 41.6101 17.4945C41.6481 17.4945 41.7897 17.6094 41.9236 17.7484C42.0574 17.8883 42.206 18.0023 42.2534 18.0023C42.3009 18.0023 42.3813 18.0593 42.4314 18.1293C42.4814 18.1992 42.5678 18.2562 42.6213 18.2562C42.6766 18.2562 42.7621 18.3141 42.8122 18.3832C42.8623 18.4531 42.9547 18.511 43.0169 18.511C43.079 18.511 43.1291 18.5395 43.1291 18.574C43.1291 18.6086 43.181 18.6371 43.2431 18.6371C43.3053 18.6371 43.3968 18.6949 43.4469 18.7649C43.5013 18.8392 43.611 18.8918 43.7147 18.8918C43.8122 18.8918 43.8917 18.9203 43.8917 18.9549C43.8917 18.9894 43.9487 19.0188 44.0186 19.0188C44.0877 19.0188 44.1456 19.0473 44.1456 19.0818C44.1456 19.1164 44.2026 19.1457 44.2725 19.1457C44.3416 19.1457 44.3995 19.1742 44.3995 19.2088C44.3995 19.2433 44.4858 19.2727 44.5895 19.2727C44.6948 19.2727 44.7803 19.3012 44.7803 19.3357C44.7803 19.3703 44.8667 19.3996 44.9703 19.3996C45.0757 19.3996 45.1612 19.4281 45.1612 19.4627C45.1612 19.4972 45.276 19.5266 45.4151 19.5266C45.555 19.5266 45.669 19.5551 45.669 19.5896C45.669 19.6242 45.7838 19.6535 45.9229 19.6535C46.0628 19.6535 46.1768 19.682 46.1768 19.7166C46.1768 19.7511 46.3201 19.7805 46.4946 19.7805C46.669 19.7805 46.8124 19.809 46.8124 19.8435C46.8124 19.8841 47.4048 19.9074 48.4627 19.9074C49.5206 19.9074 50.113 19.8841 50.113 19.8435C50.113 19.809 50.2832 19.7805 50.4939 19.7805C50.7063 19.7805 50.8756 19.752 50.8756 19.7166C50.8756 19.682 50.9896 19.6535 51.1295 19.6535C51.2685 19.6535 51.3834 19.625 51.3834 19.5896C51.3834 19.5551 51.4974 19.5266 51.6373 19.5266C51.7763 19.5266 51.8912 19.4981 51.8912 19.4627C51.8912 19.4281 51.9775 19.3996 52.0812 19.3996C52.1865 19.3996 52.2712 19.3711 52.2712 19.3357C52.2712 19.3012 52.3575 19.2727 52.4629 19.2727C52.5665 19.2727 52.6529 19.2442 52.6529 19.2088C52.6529 19.1742 52.7392 19.1457 52.8429 19.1457C52.9482 19.1457 53.0337 19.1172 53.0337 19.0818C53.0337 19.0473 53.0907 19.0188 53.1607 19.0188C53.2306 19.0188 53.2876 18.9894 53.2876 18.9549C53.2876 18.9203 53.3446 18.8918 53.4146 18.8918C53.4845 18.8918 53.5415 18.8625 53.5415 18.8279C53.5415 18.7934 53.5985 18.7649 53.6685 18.7649C53.7384 18.7649 53.7954 18.7355 53.7954 18.701C53.7954 18.6664 53.8533 18.6379 53.9223 18.6379C53.9923 18.6379 54.0493 18.6086 54.0493 18.574C54.0493 18.5395 54.1011 18.511 54.1624 18.511C54.2246 18.511 54.317 18.4531 54.3671 18.3832C54.4172 18.3141 54.5096 18.2562 54.5718 18.2562C54.6339 18.2562 54.684 18.2277 54.684 18.1932C54.684 18.1586 54.7359 18.1293 54.7972 18.1293C54.8593 18.1293 54.9518 18.0723 55.0018 18.0023C55.0519 17.9332 55.1331 17.8754 55.1806 17.8754C55.229 17.8754 55.3481 17.7899 55.4466 17.6854C55.5442 17.58 55.6564 17.4954 55.6962 17.4954C55.8033 17.4954 56.3352 16.941 56.3352 16.8304C56.3352 16.7769 56.3067 16.7328 56.2713 16.7328C56.2368 16.7328 56.2083 16.6871 56.2083 16.6318C56.2083 16.5757 56.1219 16.4504 56.0183 16.352C55.9129 16.2544 55.8274 16.1396 55.8274 16.0981C55.8274 16.0558 55.7411 15.9427 55.6374 15.8442C55.5321 15.7466 55.4466 15.6266 55.4466 15.5791C55.4466 15.5307 55.3896 15.4495 55.3196 15.3995C55.2497 15.3494 55.1927 15.2639 55.1927 15.2095C55.1927 15.1551 55.1357 15.0696 55.0658 15.0195C54.9958 14.9677 54.9388 14.8899 54.9388 14.8442C54.9388 14.7984 54.8378 14.6594 54.7143 14.5359L54.4897 14.3113L54.3084 14.5065C54.2073 14.6136 54.0864 14.7017 54.0381 14.7017C53.9897 14.7017 53.9094 14.7587 53.8593 14.8286C53.8083 14.8977 53.7229 14.9556 53.6693 14.9556C53.614 14.9556 53.5285 15.0126 53.4785 15.0825C53.4275 15.1516 53.336 15.2095 53.2738 15.2095C53.2116 15.2095 53.1615 15.238 53.1615 15.2725C53.1615 15.307 53.1037 15.3364 53.0337 15.3364C52.9646 15.3364 52.9068 15.3649 52.9068 15.3995C52.9068 15.434 52.8498 15.4634 52.7798 15.4634C52.7107 15.4634 52.6529 15.4919 52.6529 15.5264C52.6529 15.5609 52.5959 15.5903 52.5259 15.5903C52.4568 15.5903 52.399 15.6188 52.399 15.6533C52.399 15.6879 52.342 15.7173 52.272 15.7173C52.2029 15.7173 52.1451 15.7458 52.1451 15.7803C52.1451 15.8148 52.0881 15.8442 52.0181 15.8442C51.9482 15.8442 51.8912 15.8727 51.8912 15.9072C51.8912 15.9418 51.8342 15.9712 51.7642 15.9712C51.6943 15.9712 51.6373 15.9997 51.6373 16.0342C51.6373 16.0687 51.5509 16.0981 51.4473 16.0981C51.3419 16.0981 51.2564 16.1266 51.2564 16.1611C51.2564 16.1957 51.1701 16.225 51.0664 16.225C50.9611 16.225 50.8756 16.2535 50.8756 16.2881C50.8756 16.3226 50.7607 16.352 50.6217 16.352C50.4818 16.352 50.3678 16.3805 50.3678 16.415C50.3678 16.4496 50.2244 16.4789 50.05 16.4789C49.8755 16.4789 49.7322 16.5074 49.7322 16.542C49.7322 16.5826 49.309 16.6059 48.5896 16.6059C47.8703 16.6059 47.4471 16.5826 47.4471 16.5429C47.4471 16.5083 47.3038 16.4789 47.1293 16.4789C46.9549 16.4789 46.8124 16.4504 46.8124 16.415C46.8124 16.3805 46.726 16.352 46.6224 16.352C46.517 16.352 46.4315 16.3235 46.4315 16.289C46.4315 16.2535 46.3452 16.225 46.2407 16.225C46.1362 16.225 46.0507 16.1966 46.0507 16.1611C46.0507 16.1266 45.9928 16.0981 45.9229 16.0981C45.8538 16.0981 45.7959 16.0696 45.7959 16.0342C45.7959 15.9997 45.7389 15.9712 45.669 15.9712C45.5999 15.9712 45.542 15.9427 45.542 15.9072C45.542 15.8727 45.485 15.8442 45.4151 15.8442C45.346 15.8442 45.2881 15.8157 45.2881 15.7803C45.2881 15.7458 45.2372 15.7173 45.1759 15.7173C45.1128 15.7173 45.0213 15.6603 44.9712 15.5903C44.9202 15.5204 44.8399 15.4634 44.7916 15.4634C44.7441 15.4634 44.624 15.377 44.5264 15.2734C44.4288 15.168 44.3166 15.0825 44.276 15.0825C44.1836 15.0825 43.7647 14.6637 43.7647 14.5713C43.7647 14.5324 43.6507 14.3908 43.5108 14.2569C43.3709 14.1231 43.2569 13.9745 43.2569 13.927C43.2569 13.8795 43.1999 13.7992 43.13 13.7491C43.06 13.699 43.003 13.6127 43.003 13.5591C43.003 13.5039 42.9461 13.4184 42.8761 13.3683C42.8061 13.3182 42.7492 13.2258 42.7492 13.1636C42.7492 13.1014 42.7207 13.0513 42.6852 13.0513C42.6507 13.0513 42.6222 12.965 42.6222 12.8605C42.6222 12.7551 42.5937 12.6705 42.5583 12.6705C42.5238 12.6705 42.4953 12.5841 42.4953 12.4796C42.4953 12.3743 42.4668 12.2888 42.4314 12.2888C42.3968 12.2888 42.3683 12.2024 42.3683 12.0988C42.3683 11.9934 42.3398 11.9079 42.3044 11.9079C42.2699 11.9079 42.2414 11.7654 42.2414 11.5901C42.2414 11.4157 42.2129 11.2732 42.1775 11.2732C42.1377 11.2732 42.1135 10.8708 42.1135 10.1937C42.1135 9.51664 42.1377 9.11421 42.1775 9.11421C42.212 9.11421 42.2414 8.97171 42.2414 8.79727C42.2414 8.62282 42.2699 8.47946 42.3044 8.47946C42.3389 8.47946 42.3683 8.3931 42.3683 8.28947C42.3683 8.18411 42.3968 8.09862 42.4314 8.09862C42.4659 8.09862 42.4953 8.01226 42.4953 7.90863C42.4953 7.80327 42.5238 7.71777 42.5583 7.71777C42.5928 7.71777 42.6222 7.66077 42.6222 7.59082C42.6222 7.52087 42.6507 7.46388 42.6852 7.46388C42.7198 7.46388 42.7492 7.40688 42.7492 7.33693C42.7492 7.26698 42.7776 7.20998 42.8122 7.20998C42.8467 7.20998 42.8761 7.15816 42.8761 7.09685C42.8761 7.03467 42.9331 6.94313 43.003 6.89218C43.0721 6.84209 43.13 6.75659 43.13 6.70218C43.13 6.64778 43.187 6.56142 43.2569 6.51219C43.326 6.46038 43.3839 6.38265 43.3839 6.33775C43.3839 6.23066 44.4366 5.17794 44.5437 5.17794C44.5886 5.17794 44.6663 5.12094 44.7164 5.05099C44.7674 4.9819 44.8529 4.92404 44.9073 4.92404C44.9617 4.92404 45.0472 4.86704 45.0973 4.79709C45.1482 4.72801 45.2406 4.67015 45.3019 4.67015C45.3641 4.67015 45.4151 4.64165 45.4151 4.6071C45.4151 4.57256 45.4729 4.5432 45.542 4.5432C45.612 4.5432 45.669 4.5147 45.669 4.48015C45.669 4.44561 45.726 4.41625 45.7959 4.41625C45.8659 4.41625 45.9229 4.38775 45.9229 4.35321C45.9229 4.31866 45.9807 4.2893 46.0507 4.2893C46.1198 4.2893 46.1768 4.2608 46.1768 4.22626C46.1768 4.19171 46.2631 4.16235 46.3676 4.16235C46.4721 4.16235 46.5576 4.13385 46.5576 4.09931C46.5576 4.06476 46.701 4.0354 46.8754 4.0354C47.0499 4.0354 47.1932 4.0069 47.1932 3.97236C47.1932 3.93609 47.3832 3.90845 47.6371 3.90845C47.891 3.90845 48.0819 3.88168 48.0819 3.84541C48.0819 3.80741 48.315 3.78151 48.6536 3.78151C48.9921 3.78151 49.2244 3.80741 49.2244 3.84541C49.2244 3.88168 49.4144 3.90845 49.6691 3.90845C49.923 3.90845 50.113 3.93609 50.113 3.97236C50.113 4.0069 50.2279 4.0354 50.3669 4.0354C50.5068 4.0354 50.6217 4.0639 50.6217 4.09931C50.6217 4.13385 50.7072 4.16235 50.8117 4.16235C50.9162 4.16235 51.0017 4.19085 51.0017 4.22626C51.0017 4.2608 51.088 4.2893 51.1925 4.2893C51.297 4.2893 51.3825 4.3178 51.3825 4.35321C51.3825 4.38775 51.4404 4.41625 51.5103 4.41625C51.5794 4.41625 51.6373 4.44475 51.6373 4.48015C51.6373 4.5147 51.6943 4.5432 51.7642 4.5432C51.8333 4.5432 51.8912 4.57169 51.8912 4.6071C51.8912 4.64165 51.9421 4.67015 52.0034 4.67015C52.0665 4.67015 52.1589 4.72714 52.2081 4.79709C52.2591 4.86704 52.3446 4.92404 52.399 4.92404C52.4534 4.92404 52.5389 4.98104 52.589 5.05099C52.6399 5.12094 52.7194 5.17794 52.7669 5.17794C52.8144 5.17794 52.9629 5.2928 53.0976 5.43184C53.2315 5.57174 53.3748 5.68573 53.4163 5.68573C53.4569 5.68573 53.5709 5.77209 53.6685 5.87659C53.7669 5.98108 53.8783 6.06658 53.918 6.06658C53.9569 6.06658 54.4163 5.63824 54.9388 5.1149C55.4604 4.59069 55.919 4.16235 55.9578 4.16235C56.0597 4.16235 56.2083 3.99568 56.2083 3.88168C56.2083 3.82641 56.1798 3.78151 56.1444 3.78151C56.1098 3.78151 56.0813 3.73833 56.0813 3.68478C56.0813 3.57511 55.4224 2.89287 55.3153 2.89287C55.2773 2.89287 55.1357 2.77801 55.0018 2.63897C54.868 2.49907 54.7246 2.38507 54.6832 2.38507C54.6417 2.38507 54.5277 2.29871 54.431 2.19508C54.3326 2.08972 54.2065 2.00423 54.1512 2.00423C54.0951 2.00423 54.0493 1.97486 54.0493 1.94032C54.0493 1.90578 53.9983 1.87728 53.937 1.87728C53.8748 1.87728 53.7824 1.81942 53.7324 1.75033C53.6823 1.68038 53.5899 1.62252 53.5277 1.62252C53.4655 1.62252 53.4154 1.59402 53.4154 1.55947C53.4154 1.52493 53.3576 1.49557 53.2876 1.49557C53.2185 1.49557 53.1607 1.46707 53.1607 1.43253C53.1607 1.39798 53.1037 1.36862 53.0337 1.36862C52.9646 1.36862 52.9068 1.34012 52.9068 1.30558C52.9068 1.27103 52.8204 1.24167 52.7168 1.24167C52.6114 1.24167 52.5259 1.21317 52.5259 1.17863C52.5259 1.14409 52.4396 1.11472 52.3359 1.11472C52.2306 1.11472 52.1451 1.08622 52.1451 1.05168C52.1451 1.01714 52.0587 0.987774 51.9551 0.987774C51.8497 0.987774 51.7642 0.959276 51.7642 0.924732C51.7642 0.890188 51.6494 0.860826 51.5103 0.860826C51.3704 0.860826 51.2564 0.832327 51.2564 0.797783C51.2564 0.76324 51.1416 0.733877 51.0025 0.733877C50.8626 0.733877 50.7486 0.705379 50.7486 0.670835C50.7486 0.6337 50.5371 0.606929 50.2408 0.606929C49.9438 0.606929 49.7322 0.581021 49.7322 0.543887C49.7322 0.503298 49.309 0.47998 48.5896 0.47998C47.8703 0.47998 47.4471 0.503298 47.4471 0.543887ZM67.5084 0.543887C67.5084 0.581021 67.2968 0.606929 67.0006 0.606929C66.7044 0.606929 66.4928 0.632837 66.4928 0.670835C66.4928 0.705379 66.3503 0.733877 66.1759 0.733877C66.0014 0.733877 65.8581 0.762376 65.8581 0.797783C65.8581 0.832327 65.7717 0.860826 65.6681 0.860826C65.5627 0.860826 65.4781 0.889325 65.4781 0.924732C65.4781 0.959276 65.3633 0.987774 65.2234 0.987774C65.0835 0.987774 64.9695 1.01627 64.9695 1.05168C64.9695 1.08622 64.8831 1.11472 64.7795 1.11472C64.6741 1.11472 64.5886 1.14322 64.5886 1.17863C64.5886 1.21317 64.5316 1.24167 64.4617 1.24167C64.3917 1.24167 64.3347 1.27017 64.3347 1.30558C64.3347 1.34012 64.2484 1.36862 64.1447 1.36862C64.0394 1.36862 63.9539 1.39798 63.9539 1.43253C63.9539 1.46707 63.8969 1.49557 63.8269 1.49557C63.757 1.49557 63.7 1.52493 63.7 1.55947C63.7 1.59402 63.6421 1.62252 63.573 1.62252C63.5031 1.62252 63.4461 1.65188 63.4461 1.68642C63.4461 1.72097 63.3943 1.75033 63.3329 1.75033C63.2708 1.75033 63.1784 1.80733 63.1283 1.87728C63.0782 1.94637 62.9858 2.00423 62.9236 2.00423C62.8614 2.00423 62.8113 2.03272 62.8113 2.06727C62.8113 2.10181 62.7656 2.13117 62.7094 2.13117C62.6533 2.13117 62.5281 2.21667 62.4296 2.32117C62.332 2.42566 62.218 2.51116 62.1757 2.51116C62.1343 2.51116 62.0203 2.59752 61.9218 2.70201C61.8242 2.80737 61.712 2.892 61.6731 2.892C61.5807 2.892 60.6523 3.82123 60.6523 3.91364C60.6523 3.9525 60.566 4.06476 60.4624 4.16235C60.357 4.25994 60.2715 4.3748 60.2715 4.41625C60.2715 4.45856 60.1851 4.57169 60.0815 4.67015C59.9761 4.76859 59.8906 4.88777 59.8906 4.93613C59.8906 4.98363 59.8336 5.06481 59.7637 5.1149C59.6937 5.16498 59.6368 5.25739 59.6368 5.31957C59.6368 5.38175 59.6083 5.43184 59.5728 5.43184C59.5383 5.43184 59.5098 5.4897 59.5098 5.55878C59.5098 5.62874 59.4813 5.68573 59.4459 5.68573C59.4114 5.68573 59.3829 5.77209 59.3829 5.87659C59.3829 5.98108 59.3544 6.06658 59.3189 6.06658C59.2844 6.06658 59.2559 6.12444 59.2559 6.19439C59.2559 6.26348 59.2265 6.32134 59.192 6.32134C59.1575 6.32134 59.129 6.40683 59.129 6.51133C59.129 6.61582 59.0996 6.70132 59.0651 6.70132C59.0305 6.70132 59.002 6.75918 59.002 6.82913C59.002 6.89822 58.9735 6.95608 58.9381 6.95608C58.9036 6.95608 58.8751 7.07008 58.8751 7.20998C58.8751 7.34988 58.8457 7.46388 58.8112 7.46388C58.7766 7.46388 58.7473 7.55023 58.7473 7.65387C58.7473 7.75922 58.7188 7.84472 58.6842 7.84472C58.6497 7.84472 58.6212 7.98721 58.6212 8.16252C58.6212 8.33697 58.5918 8.47946 58.5573 8.47946C58.5167 8.47946 58.4934 9.09262 58.4934 10.1937C58.4934 11.2939 58.5167 11.9079 58.5573 11.9079C58.5918 11.9079 58.6212 12.0504 58.6212 12.2249C58.6212 12.4002 58.6488 12.5427 58.6842 12.5427C58.7188 12.5427 58.7473 12.629 58.7473 12.7327C58.7473 12.838 58.7766 12.9235 58.8112 12.9235C58.8457 12.9235 58.8742 13.0384 58.8742 13.1774C58.8742 13.3173 58.9036 13.4313 58.9381 13.4313C58.9727 13.4313 59.002 13.5177 59.002 13.6213C59.002 13.7267 59.0305 13.8122 59.0651 13.8122C59.0996 13.8122 59.129 13.8985 59.129 14.0022C59.129 14.1075 59.1575 14.193 59.192 14.193C59.2265 14.193 59.2559 14.2509 59.2559 14.3208C59.2559 14.3899 59.2844 14.4469 59.3189 14.4469C59.3535 14.4469 59.3829 14.5048 59.3829 14.5747C59.3829 14.6438 59.4114 14.7017 59.4459 14.7017C59.4804 14.7017 59.5098 14.7587 59.5098 14.8286C59.5098 14.8977 59.5383 14.9556 59.5728 14.9556C59.6074 14.9556 59.6368 15.0065 59.6368 15.0678C59.6368 15.13 59.6937 15.2224 59.7637 15.2725C59.8328 15.3235 59.8906 15.415 59.8906 15.4772C59.8906 15.5394 59.9191 15.5894 59.9537 15.5894C59.9882 15.5894 60.0176 15.6361 60.0176 15.6913C60.0176 15.7475 60.1031 15.8727 60.2076 15.9712C60.3129 16.0687 60.3976 16.181 60.3976 16.219C60.3976 16.3114 61.8355 17.7484 61.9279 17.7484C61.9667 17.7484 62.0781 17.8348 62.1757 17.9384C62.2742 18.0438 62.3933 18.1293 62.4417 18.1293C62.4892 18.1293 62.5704 18.1871 62.6205 18.2562C62.6706 18.3262 62.763 18.3832 62.8251 18.3832C62.8873 18.3832 62.9374 18.4125 62.9374 18.4471C62.9374 18.4816 62.9892 18.5101 63.0505 18.5101C63.1127 18.5101 63.2051 18.568 63.2552 18.6371C63.3053 18.707 63.3977 18.7649 63.4599 18.7649C63.5221 18.7649 63.5722 18.7934 63.5722 18.8279C63.5722 18.8625 63.63 18.8918 63.7 18.8918C63.7691 18.8918 63.8269 18.9203 63.8269 18.9549C63.8269 18.9894 63.9124 19.0188 64.0169 19.0188C64.1214 19.0188 64.2069 19.0473 64.2069 19.0818C64.2069 19.1164 64.2648 19.1457 64.3347 19.1457C64.4038 19.1457 64.4617 19.1742 64.4617 19.2088C64.4617 19.2433 64.548 19.2727 64.6516 19.2727C64.757 19.2727 64.8416 19.3012 64.8416 19.3357C64.8416 19.3703 64.928 19.3996 65.0334 19.3996C65.137 19.3996 65.2234 19.4281 65.2234 19.4627C65.2234 19.4972 65.3373 19.5266 65.4772 19.5266C65.6171 19.5266 65.7311 19.5551 65.7311 19.5896C65.7311 19.6242 65.846 19.6535 65.985 19.6535C66.1249 19.6535 66.2389 19.682 66.2389 19.7166C66.2389 19.7511 66.3823 19.7805 66.5567 19.7805C66.7312 19.7805 66.8737 19.809 66.8737 19.8435C66.8737 19.885 67.4877 19.9074 68.5879 19.9074C69.689 19.9074 70.3022 19.885 70.3022 19.8435C70.3022 19.809 70.4455 19.7805 70.62 19.7805C70.7944 19.7805 70.9369 19.752 70.9369 19.7166C70.9369 19.682 71.0518 19.6535 71.1908 19.6535C71.3307 19.6535 71.4447 19.625 71.4447 19.5896C71.4447 19.5551 71.5595 19.5266 71.6995 19.5266C71.8385 19.5266 71.9533 19.4981 71.9533 19.4627C71.9533 19.4281 72.0388 19.3996 72.1433 19.3996C72.2487 19.3996 72.3333 19.3711 72.3333 19.3357C72.3333 19.3012 72.4197 19.2727 72.5242 19.2727C72.6295 19.2727 72.7142 19.2442 72.7142 19.2088C72.7142 19.1742 72.8005 19.1457 72.905 19.1457C73.0104 19.1457 73.095 19.1172 73.095 19.0818C73.095 19.0473 73.1529 19.0188 73.2228 19.0188C73.2919 19.0188 73.3498 18.9894 73.3498 18.9549C73.3498 18.9203 73.4068 18.8918 73.4767 18.8918C73.5458 18.8918 73.6037 18.8625 73.6037 18.8279C73.6037 18.7934 73.6546 18.7649 73.716 18.7649C73.779 18.7649 73.8714 18.707 73.9215 18.6371C73.9716 18.568 74.0631 18.511 74.1253 18.511C74.1875 18.511 74.2384 18.4816 74.2384 18.4471C74.2384 18.4125 74.2902 18.3832 74.3516 18.3832C74.4137 18.3832 74.5053 18.3262 74.5562 18.2562C74.6063 18.1871 74.6866 18.1293 74.735 18.1293C74.7833 18.1293 74.9025 18.0438 75.0001 17.9393C75.0986 17.8348 75.21 17.7493 75.2488 17.7493C75.3404 17.7493 76.6513 16.4392 76.6513 16.3477C76.6513 16.3097 76.7653 16.1689 76.9052 16.0342C77.0451 15.9003 77.1591 15.7458 77.1591 15.6905C77.1591 15.6352 77.1876 15.5903 77.2221 15.5903C77.2567 15.5903 77.286 15.5385 77.286 15.4772C77.286 15.415 77.343 15.3235 77.413 15.2725C77.4821 15.2224 77.5399 15.13 77.5399 15.0678C77.5399 15.0065 77.5684 14.9556 77.603 14.9556C77.6375 14.9556 77.6669 14.8986 77.6669 14.8286C77.6669 14.7587 77.6954 14.7017 77.7308 14.7017C77.7653 14.7017 77.7938 14.6438 77.7938 14.5747C77.7938 14.5048 77.8223 14.4469 77.8569 14.4469C77.8923 14.4469 77.9208 14.3614 77.9208 14.2569C77.9208 14.1524 77.9493 14.0669 77.9847 14.0669C78.0192 14.0669 78.0477 14.0091 78.0477 13.9391C78.0477 13.87 78.0762 13.8122 78.1116 13.8122C78.1462 13.8122 78.1747 13.7267 78.1747 13.6222C78.1747 13.5177 78.2032 13.4322 78.2386 13.4322C78.2731 13.4322 78.3016 13.3458 78.3016 13.2413C78.3016 13.136 78.3301 13.0513 78.3655 13.0513C78.4001 13.0513 78.4286 12.9365 78.4286 12.7966C78.4286 12.6567 78.4571 12.5427 78.4925 12.5427C78.527 12.5427 78.5555 12.4002 78.5555 12.2257C78.5555 12.0504 78.584 11.9079 78.6194 11.9079C78.66 11.9079 78.6825 11.3155 78.6825 10.2567C78.6825 9.19884 78.66 8.60728 78.6194 8.60728C78.584 8.60728 78.5555 8.43715 78.5555 8.22557C78.5555 8.01399 78.5279 7.84472 78.4925 7.84472C78.4579 7.84472 78.4286 7.73073 78.4286 7.59082C78.4286 7.45092 78.4001 7.33693 78.3655 7.33693C78.331 7.33693 78.3016 7.25057 78.3016 7.14694C78.3016 7.04158 78.2731 6.95608 78.2386 6.95608C78.204 6.95608 78.1747 6.89908 78.1747 6.82913C78.1747 6.75918 78.1462 6.70218 78.1116 6.70218C78.0771 6.70218 78.0477 6.61582 78.0477 6.51219C78.0477 6.40683 78.0192 6.32134 77.9847 6.32134C77.9502 6.32134 77.9208 6.26348 77.9208 6.19439C77.9208 6.12444 77.8923 6.06744 77.8569 6.06744C77.8223 6.06744 77.7938 6.00958 77.7938 5.94049C77.7938 5.87054 77.7653 5.81268 77.7308 5.81268C77.6963 5.81268 77.6669 5.75568 77.6669 5.68573C77.6669 5.61665 77.6384 5.55878 77.6039 5.55878C77.5684 5.55878 77.5399 5.50179 77.5399 5.43184C77.5399 5.36275 77.5114 5.30489 77.476 5.30489C77.4415 5.30489 77.413 5.24789 77.413 5.17794C77.413 5.10885 77.3845 5.05099 77.3491 5.05099C77.3146 5.05099 77.286 5.00522 77.286 4.94995C77.286 4.89382 77.1997 4.76859 77.0961 4.67015C76.9907 4.57256 76.9052 4.45943 76.9052 4.41884C76.9052 4.37825 76.7618 4.20553 76.5874 4.0354C76.413 3.86527 76.2705 3.69515 76.2705 3.65715C76.2705 3.56647 75.5951 2.89287 75.5036 2.89287C75.4639 2.89287 75.3525 2.80651 75.254 2.70287C75.1564 2.59752 75.0372 2.51202 74.9889 2.51202C74.9405 2.51202 74.8602 2.45502 74.8101 2.38507C74.76 2.31512 74.6737 2.25812 74.6201 2.25812C74.5649 2.25812 74.4794 2.20026 74.4293 2.13117C74.3783 2.06122 74.2928 2.00423 74.2393 2.00423C74.184 2.00423 74.0985 1.94637 74.0484 1.87728C73.9975 1.80733 73.9059 1.75033 73.8438 1.75033C73.7816 1.75033 73.7306 1.72097 73.7306 1.68642C73.7306 1.65188 73.6736 1.62252 73.6037 1.62252C73.5346 1.62252 73.4767 1.59402 73.4767 1.55947C73.4767 1.52493 73.4197 1.49557 73.3498 1.49557C73.2807 1.49557 73.2228 1.46707 73.2228 1.43253C73.2228 1.39798 73.1365 1.36862 73.0328 1.36862C72.9275 1.36862 72.842 1.34012 72.842 1.30558C72.842 1.27103 72.785 1.24167 72.715 1.24167C72.6451 1.24167 72.5881 1.21317 72.5881 1.17863C72.5881 1.14409 72.5017 1.11472 72.3981 1.11472C72.2927 1.11472 72.2072 1.08622 72.2072 1.05168C72.2072 1.01714 72.0924 0.987774 71.9533 0.987774C71.8134 0.987774 71.6995 0.959276 71.6995 0.924732C71.6995 0.890188 71.6131 0.860826 71.5086 0.860826C71.4041 0.860826 71.3186 0.832327 71.3186 0.797783C71.3186 0.76324 71.1752 0.733877 71.0008 0.733877C70.8264 0.733877 70.683 0.705379 70.683 0.670835C70.683 0.6337 70.4714 0.606929 70.1752 0.606929C69.879 0.606929 69.6674 0.581021 69.6674 0.543887C69.6674 0.504161 69.265 0.47998 68.5879 0.47998C67.9109 0.47998 67.5084 0.504161 67.5084 0.543887ZM87.4436 0.543887C87.4436 0.580158 87.2537 0.606929 86.9998 0.606929C86.7459 0.606929 86.555 0.634564 86.555 0.670835C86.555 0.705379 86.4125 0.733877 86.2381 0.733877C86.0628 0.733877 85.9203 0.762376 85.9203 0.797783C85.9203 0.832327 85.8339 0.860826 85.7303 0.860826C85.6249 0.860826 85.5394 0.889325 85.5394 0.924732C85.5394 0.959276 85.4531 0.987774 85.3494 0.987774C85.2441 0.987774 85.1586 1.01627 85.1586 1.05168C85.1586 1.08622 85.1016 1.11472 85.0316 1.11472C84.9617 1.11472 84.9047 1.14322 84.9047 1.17863C84.9047 1.21317 84.8183 1.24167 84.7147 1.24167C84.6093 1.24167 84.5238 1.27017 84.5238 1.30558C84.5238 1.34012 84.472 1.36862 84.4107 1.36862C84.3485 1.36862 84.2561 1.42648 84.206 1.49557C84.1559 1.56552 84.0704 1.62252 84.016 1.62252C83.9616 1.62252 83.8753 1.68038 83.8252 1.75033C83.7751 1.81942 83.6965 1.87728 83.6516 1.87728C83.6058 1.87728 83.3554 2.09059 83.0937 2.35226C82.8329 2.61306 82.6188 2.86437 82.6188 2.90927C82.6188 2.95504 82.5617 3.03277 82.4918 3.08286C82.4227 3.13381 82.3649 3.2193 82.3649 3.27285C82.3649 3.32812 82.3079 3.41361 82.2379 3.4637C82.1688 3.51465 82.111 3.6062 82.111 3.66837C82.111 3.73055 82.0825 3.78151 82.0479 3.78151C82.0134 3.78151 81.984 3.86786 81.984 3.9715C81.984 4.07685 81.9555 4.16235 81.9201 4.16235C81.8856 4.16235 81.8571 4.24871 81.8571 4.35234C81.8571 4.4577 81.8286 4.5432 81.794 4.5432C81.7586 4.5432 81.7301 4.65805 81.7301 4.79709C81.7301 4.937 81.7016 5.05099 81.6662 5.05099C81.6273 5.05099 81.6032 5.43184 81.6032 6.06744C81.6032 6.70218 81.6273 7.08303 81.6662 7.08303C81.7008 7.08303 81.7301 7.19702 81.7301 7.33693C81.7301 7.47683 81.7586 7.59082 81.7932 7.59082C81.8277 7.59082 81.8571 7.67718 81.8571 7.78081C81.8571 7.88617 81.8856 7.97167 81.9201 7.97167C81.9546 7.97167 81.984 8.02262 81.984 8.08394C81.984 8.14698 82.041 8.23938 82.111 8.28947C82.18 8.33956 82.2379 8.41988 82.2379 8.46824C82.2379 8.5166 82.3243 8.63577 82.4279 8.73336C82.5332 8.83181 82.6188 8.94321 82.6188 8.98294C82.6188 9.08225 83.1689 9.622 83.2699 9.622C83.3157 9.622 83.3943 9.67986 83.4443 9.74895C83.4944 9.8189 83.5799 9.8759 83.6343 9.8759C83.6887 9.8759 83.7751 9.93376 83.8252 10.0028C83.8753 10.0728 83.9677 10.1298 84.0299 10.1298C84.092 10.1298 84.1421 10.1592 84.1421 10.1937C84.1421 10.2282 84.2 10.2576 84.2699 10.2576C84.339 10.2576 84.3969 10.2861 84.3969 10.3206C84.3969 10.3552 84.4539 10.3846 84.5238 10.3846C84.5929 10.3846 84.6508 10.4131 84.6508 10.4476C84.6508 10.4821 84.7078 10.5115 84.7777 10.5115C84.8468 10.5115 84.9047 10.54 84.9047 10.5745C84.9047 10.6091 84.9617 10.6385 85.0316 10.6385C85.1007 10.6385 85.1586 10.6669 85.1586 10.7015C85.1586 10.736 85.2441 10.7654 85.3486 10.7654C85.4539 10.7654 85.5386 10.7939 85.5386 10.8284C85.5386 10.863 85.6249 10.8923 85.7294 10.8923C85.8348 10.8923 85.9194 10.9208 85.9194 10.9554C85.9194 10.9899 86.0058 11.0193 86.1103 11.0193C86.2156 11.0193 86.3011 11.0478 86.3011 11.0823C86.3011 11.1169 86.3875 11.1462 86.4911 11.1462C86.5965 11.1462 86.682 11.1747 86.682 11.2093C86.682 11.2438 86.7683 11.2732 86.872 11.2732C86.9773 11.2732 87.0628 11.3017 87.0628 11.3362C87.0628 11.3708 87.1483 11.4001 87.2537 11.4001C87.3582 11.4001 87.4436 11.4286 87.4436 11.4632C87.4436 11.4977 87.53 11.5271 87.6345 11.5271C87.739 11.5271 87.8245 11.5556 87.8245 11.5901C87.8245 11.6247 87.9109 11.654 88.0154 11.654C88.1199 11.654 88.2053 11.6825 88.2053 11.7171C88.2053 11.7516 88.2917 11.781 88.3962 11.781C88.5007 11.781 88.5871 11.8095 88.5871 11.844C88.5871 11.8786 88.6725 11.9079 88.777 11.9079C88.8815 11.9079 88.9679 11.9364 88.9679 11.971C88.9679 12.0055 89.0534 12.0349 89.1579 12.0349C89.2633 12.0349 89.3487 12.0634 89.3487 12.0979C89.3487 12.1325 89.4342 12.1618 89.5387 12.1618C89.6441 12.1618 89.7296 12.1903 89.7296 12.2249C89.7296 12.2594 89.7866 12.2888 89.8565 12.2888C89.9265 12.2888 89.9835 12.3173 89.9835 12.3527C89.9835 12.3872 90.069 12.4157 90.1735 12.4157C90.2788 12.4157 90.3643 12.4442 90.3643 12.4796C90.3643 12.5142 90.4153 12.5427 90.4775 12.5427C90.5396 12.5427 90.6312 12.5997 90.6821 12.6696C90.7322 12.7396 90.8108 12.7966 90.8557 12.7966C90.9714 12.7966 91.6338 13.471 91.6338 13.5894C91.6338 13.642 91.6623 13.6852 91.6977 13.6852C91.7323 13.6852 91.7608 13.7716 91.7608 13.8752C91.7608 13.9806 91.7893 14.0661 91.8247 14.0661C91.8609 14.0661 91.8877 14.2569 91.8877 14.5108C91.8877 14.7647 91.8609 14.9556 91.8247 14.9556C91.7893 14.9556 91.7608 15.0411 91.7608 15.1456C91.7608 15.2501 91.7323 15.3355 91.6977 15.3355C91.6623 15.3355 91.6338 15.3874 91.6338 15.4487C91.6338 15.5117 91.5768 15.6033 91.5069 15.6533C91.4369 15.7043 91.3799 15.7838 91.3799 15.8313C91.3799 15.9418 91.2236 16.0981 91.1131 16.0981C91.0656 16.0981 90.9861 16.1551 90.936 16.225C90.8851 16.2941 90.7935 16.352 90.7314 16.352C90.6692 16.352 90.6182 16.3805 90.6182 16.415C90.6182 16.4496 90.5327 16.4789 90.4282 16.4789C90.3229 16.4789 90.2374 16.5074 90.2374 16.542C90.2374 16.5774 90.1234 16.6059 89.9835 16.6059C89.8436 16.6059 89.7296 16.6344 89.7296 16.6698C89.7296 16.7052 89.5387 16.7328 89.2848 16.7328C89.0309 16.7328 88.841 16.7605 88.841 16.7967C88.841 16.833 88.6501 16.8598 88.3962 16.8598C88.1423 16.8598 87.9515 16.833 87.9515 16.7967C87.9515 16.7588 87.7191 16.7328 87.3806 16.7328C87.0421 16.7328 86.8089 16.7069 86.8089 16.6698C86.8089 16.6353 86.6664 16.6059 86.492 16.6059C86.3167 16.6059 86.1742 16.5774 86.1742 16.5429C86.1742 16.5083 86.0602 16.4789 85.9203 16.4789C85.7804 16.4789 85.6664 16.4504 85.6664 16.415C85.6664 16.3805 85.5524 16.352 85.4125 16.352C85.2726 16.352 85.1586 16.3235 85.1586 16.289C85.1586 16.2535 85.0722 16.225 84.9686 16.225C84.8632 16.225 84.7777 16.1966 84.7777 16.1611C84.7777 16.1266 84.7199 16.0981 84.6508 16.0981C84.5808 16.0981 84.5238 16.0696 84.5238 16.0342C84.5238 15.9997 84.466 15.9712 84.3969 15.9712C84.3269 15.9712 84.2699 15.9427 84.2699 15.9072C84.2699 15.8727 84.2121 15.8442 84.143 15.8442C84.073 15.8442 84.0152 15.8157 84.0152 15.7803C84.0152 15.7458 83.9582 15.7173 83.8882 15.7173C83.8191 15.7173 83.7613 15.6888 83.7613 15.6533C83.7613 15.6188 83.7043 15.5903 83.6343 15.5903C83.5653 15.5903 83.5074 15.5618 83.5074 15.5264C83.5074 15.4919 83.4504 15.4634 83.3804 15.4634C83.3113 15.4634 83.2535 15.4349 83.2535 15.3995C83.2535 15.3649 83.2025 15.3364 83.1412 15.3364C83.079 15.3364 82.9866 15.2794 82.9365 15.2095C82.8856 15.1395 82.7941 15.0825 82.7319 15.0825C82.6697 15.0825 82.6196 15.054 82.6196 15.0186C82.6196 14.9841 82.5617 14.9556 82.4918 14.9556C82.4072 14.9556 82.3649 14.9979 82.3649 15.0825C82.3649 15.1516 82.3364 15.2095 82.3018 15.2095C82.2673 15.2095 82.2379 15.2665 82.2379 15.3364C82.2379 15.4055 82.2094 15.4634 82.1749 15.4634C82.1403 15.4634 82.111 15.5489 82.111 15.6533C82.111 15.7587 82.0825 15.8433 82.0479 15.8433C82.0134 15.8433 81.984 15.9012 81.984 15.9712C81.984 16.0402 81.9555 16.0981 81.9201 16.0981C81.8856 16.0981 81.8571 16.1845 81.8571 16.2881C81.8571 16.3935 81.8286 16.4789 81.794 16.4789C81.7586 16.4789 81.7301 16.5359 81.7301 16.6059C81.7301 16.675 81.7016 16.7328 81.6662 16.7328C81.6317 16.7328 81.6032 16.8192 81.6032 16.9228C81.6032 17.0282 81.5747 17.1137 81.5393 17.1137C81.5047 17.1137 81.4762 17.2 81.4762 17.3037C81.4762 17.409 81.4477 17.4945 81.4123 17.4945C81.3778 17.4945 81.3493 17.5809 81.3493 17.6845C81.3493 17.8175 81.3804 17.8754 81.4503 17.8754C81.5064 17.8754 81.6317 17.9617 81.7301 18.0654C81.8277 18.1707 81.9538 18.2562 82.009 18.2562C82.0652 18.2562 82.111 18.2856 82.111 18.3201C82.111 18.3547 82.1619 18.3832 82.2232 18.3832C82.2863 18.3832 82.3787 18.441 82.4288 18.511C82.4788 18.5801 82.5704 18.6371 82.6326 18.6371C82.6947 18.6371 82.7457 18.6664 82.7457 18.701C82.7457 18.7355 82.8027 18.7649 82.8726 18.7649C82.9426 18.7649 82.9996 18.7934 82.9996 18.8279C82.9996 18.8625 83.0566 18.8918 83.1265 18.8918C83.1965 18.8918 83.2535 18.9203 83.2535 18.9549C83.2535 18.9894 83.3113 19.0188 83.3804 19.0188C83.4504 19.0188 83.5074 19.0473 83.5074 19.0818C83.5074 19.1164 83.5938 19.1457 83.6974 19.1457C83.8027 19.1457 83.8891 19.1742 83.8891 19.2088C83.8891 19.2433 83.9746 19.2727 84.0791 19.2727C84.1836 19.2727 84.2691 19.3012 84.2691 19.3357C84.2691 19.3703 84.3554 19.3996 84.4599 19.3996C84.5644 19.3996 84.6499 19.4281 84.6499 19.4627C84.6499 19.4972 84.7648 19.5266 84.9047 19.5266C85.0437 19.5266 85.1586 19.5551 85.1586 19.5896C85.1586 19.6242 85.3011 19.6535 85.4755 19.6535C85.6508 19.6535 85.7933 19.682 85.7933 19.7166C85.7933 19.752 85.9626 19.7805 86.1742 19.7805C86.3857 19.7805 86.555 19.8081 86.555 19.8435C86.555 19.8841 87.1474 19.9074 88.2053 19.9074C89.2641 19.9074 89.8565 19.8841 89.8565 19.8435C89.8565 19.809 90.0258 19.7805 90.2374 19.7805C90.449 19.7805 90.6182 19.752 90.6182 19.7166C90.6182 19.682 90.7322 19.6535 90.8721 19.6535C91.012 19.6535 91.126 19.625 91.126 19.5896C91.126 19.5551 91.2115 19.5266 91.3169 19.5266C91.4214 19.5266 91.5069 19.4981 91.5069 19.4627C91.5069 19.4281 91.5932 19.3996 91.6977 19.3996C91.8022 19.3996 91.8877 19.3711 91.8877 19.3357C91.8877 19.3012 91.9456 19.2727 92.0147 19.2727C92.0846 19.2727 92.1416 19.2442 92.1416 19.2088C92.1416 19.1742 92.228 19.1457 92.3325 19.1457C92.437 19.1457 92.5233 19.1172 92.5233 19.0818C92.5233 19.0473 92.5734 19.0188 92.6356 19.0188C92.6978 19.0188 92.7902 18.9609 92.8403 18.8918C92.8904 18.8219 92.9767 18.7649 93.0311 18.7649C93.0855 18.7649 93.171 18.707 93.2211 18.6371C93.2712 18.568 93.3524 18.511 93.3999 18.511C93.4482 18.511 93.5683 18.4246 93.6659 18.3201C93.7634 18.2156 93.8757 18.1301 93.9154 18.1301C94.0087 18.1301 94.4275 17.7113 94.4275 17.618C94.4275 17.5783 94.513 17.4652 94.6184 17.3676C94.7229 17.27 94.8084 17.1508 94.8084 17.1025C94.8084 17.0541 94.8654 16.9729 94.9353 16.9237C95.0053 16.8727 95.0623 16.7812 95.0623 16.719C95.0623 16.6568 95.0908 16.6068 95.1262 16.6068C95.1607 16.6068 95.1892 16.5489 95.1892 16.4789C95.1892 16.4099 95.2177 16.352 95.2531 16.352C95.2877 16.352 95.3162 16.295 95.3162 16.225C95.3162 16.156 95.3447 16.0981 95.3801 16.0981C95.4146 16.0981 95.4431 16.0117 95.4431 15.9081C95.4431 15.8028 95.4716 15.7173 95.507 15.7173C95.5424 15.7173 95.5701 15.548 95.5701 15.3364C95.5701 15.1248 95.5986 14.9556 95.634 14.9556C95.672 14.9556 95.697 14.7017 95.697 14.3208C95.697 13.9391 95.672 13.6852 95.634 13.6852C95.5986 13.6852 95.5701 13.516 95.5701 13.3052C95.5701 13.0928 95.5424 12.9235 95.507 12.9235C95.4716 12.9235 95.4431 12.8095 95.4431 12.6696C95.4431 12.5297 95.4146 12.4157 95.3801 12.4157C95.3447 12.4157 95.3162 12.3587 95.3162 12.2888C95.3162 12.2197 95.2877 12.1618 95.2531 12.1618C95.2177 12.1618 95.1892 12.1048 95.1892 12.0349C95.1892 11.9658 95.1607 11.9079 95.1262 11.9079C95.0908 11.9079 95.0623 11.8509 95.0623 11.781C95.0623 11.711 95.0338 11.654 94.9992 11.654C94.9638 11.654 94.9353 11.6091 94.9353 11.5547C94.9353 11.5003 94.7928 11.3164 94.6184 11.1462C94.4431 10.9761 94.3006 10.8043 94.3006 10.7645C94.3006 10.6704 94.14 10.5115 94.045 10.5115C94.0044 10.5115 93.8904 10.4251 93.7928 10.3215C93.6952 10.2162 93.5752 10.1298 93.5277 10.1298C93.4793 10.1298 93.399 10.0728 93.3481 10.0037C93.298 9.93376 93.2056 9.8759 93.1434 9.8759C93.0821 9.8759 93.0311 9.8474 93.0311 9.81285C93.0311 9.77831 92.9733 9.74895 92.9042 9.74895C92.8342 9.74895 92.7772 9.72045 92.7772 9.68591C92.7772 9.65136 92.7194 9.622 92.6503 9.622C92.5803 9.622 92.5233 9.5935 92.5233 9.55896C92.5233 9.52441 92.4655 9.49505 92.3955 9.49505C92.3264 9.49505 92.2686 9.46655 92.2686 9.43201C92.2686 9.39746 92.2116 9.3681 92.1416 9.3681C92.0725 9.3681 92.0147 9.3396 92.0147 9.30506C92.0147 9.27052 91.9292 9.24115 91.8247 9.24115C91.7202 9.24115 91.6338 9.21266 91.6338 9.17811C91.6338 9.14357 91.5483 9.11421 91.4438 9.11421C91.3385 9.11421 91.253 9.08571 91.253 9.05116C91.253 9.01662 91.196 8.98726 91.126 8.98726C91.0561 8.98726 90.9991 8.95876 90.9991 8.92421C90.9991 8.88967 90.9136 8.86031 90.8091 8.86031C90.7037 8.86031 90.6182 8.83181 90.6182 8.79727C90.6182 8.76272 90.5327 8.73336 90.4282 8.73336C90.3229 8.73336 90.2374 8.70486 90.2374 8.67032C90.2374 8.63577 90.1519 8.60641 90.0465 8.60641C89.942 8.60641 89.8565 8.57791 89.8565 8.54337C89.8565 8.50883 89.7425 8.47946 89.6026 8.47946C89.4627 8.47946 89.3487 8.45096 89.3487 8.41642C89.3487 8.38188 89.2633 8.35251 89.1579 8.35251C89.0534 8.35251 88.9679 8.32402 88.9679 8.28947C88.9679 8.25493 88.853 8.22557 88.714 8.22557C88.5741 8.22557 88.4601 8.19707 88.4601 8.16252C88.4601 8.12798 88.3737 8.09862 88.2692 8.09862C88.1648 8.09862 88.0784 8.07012 88.0784 8.03557C88.0784 8.00103 87.9929 7.97167 87.8884 7.97167C87.7839 7.97167 87.6975 7.94317 87.6975 7.90776C87.6975 7.87322 87.6121 7.84472 87.5076 7.84472C87.4031 7.84472 87.3167 7.81622 87.3167 7.78081C87.3167 7.74627 87.2597 7.71777 87.1898 7.71777C87.1198 7.71777 87.0628 7.68927 87.0628 7.65387C87.0628 7.61932 87.0058 7.59082 86.9359 7.59082C86.8668 7.59082 86.8089 7.56233 86.8089 7.52692C86.8089 7.49237 86.7519 7.46388 86.682 7.46388C86.6129 7.46388 86.555 7.43538 86.555 7.39997C86.555 7.36543 86.5118 7.33693 86.4583 7.33693C86.3331 7.33693 85.5394 6.54242 85.5394 6.4172C85.5394 6.36452 85.5109 6.32134 85.4755 6.32134C85.4375 6.32134 85.4125 6.05017 85.4125 5.63651C85.4125 5.02508 85.4263 4.94218 85.5394 4.861C85.6085 4.81005 85.6664 4.73146 85.6664 4.68569C85.6664 4.56997 86.0852 4.16235 86.2035 4.16235C86.2571 4.16235 86.3011 4.13385 86.3011 4.09931C86.3011 4.06476 86.3581 4.0354 86.4281 4.0354C86.4972 4.0354 86.555 4.0069 86.555 3.97236C86.555 3.93782 86.6414 3.90845 86.745 3.90845C86.8504 3.90845 86.9359 3.87996 86.9359 3.84541C86.9359 3.81087 87.0792 3.78151 87.2537 3.78151C87.4281 3.78151 87.5706 3.75301 87.5706 3.7176C87.5706 3.67787 87.9938 3.65456 88.714 3.65456C89.4334 3.65456 89.8565 3.67787 89.8565 3.7176C89.8565 3.75301 90.0258 3.78151 90.2374 3.78151C90.449 3.78151 90.6182 3.81 90.6182 3.84541C90.6182 3.87996 90.7322 3.90845 90.8721 3.90845C91.012 3.90845 91.126 3.93695 91.126 3.97236C91.126 4.0069 91.2115 4.0354 91.3169 4.0354C91.4214 4.0354 91.5069 4.0639 91.5069 4.09931C91.5069 4.13385 91.5932 4.16235 91.6977 4.16235C91.8022 4.16235 91.8877 4.19085 91.8877 4.22626C91.8877 4.2608 91.9456 4.2893 92.0147 4.2893C92.0846 4.2893 92.1416 4.3178 92.1416 4.35321C92.1416 4.38775 92.1995 4.41625 92.2686 4.41625C92.3385 4.41625 92.3955 4.44475 92.3955 4.48015C92.3955 4.5147 92.4534 4.5432 92.5233 4.5432C92.5924 4.5432 92.6503 4.57169 92.6503 4.6071C92.6503 4.64165 92.7073 4.67015 92.7772 4.67015C92.8463 4.67015 92.9042 4.69864 92.9042 4.73405C92.9042 4.76859 92.9612 4.79709 93.0311 4.79709C93.1011 4.79709 93.1581 4.82559 93.1581 4.861C93.1581 4.89554 93.209 4.92404 93.2703 4.92404C93.3325 4.92404 93.4249 4.98104 93.475 5.05099C93.526 5.12094 93.6115 5.17794 93.6659 5.17794C93.7203 5.17794 93.8058 5.23494 93.8559 5.30489C93.9068 5.37484 93.9983 5.43184 94.0605 5.43184C94.1313 5.43184 94.1737 5.38434 94.1737 5.30489C94.1737 5.2358 94.2022 5.17794 94.2367 5.17794C94.2721 5.17794 94.3006 5.09244 94.3006 4.98795C94.3006 4.88259 94.3291 4.79796 94.3636 4.79796C94.399 4.79796 94.4275 4.7401 94.4275 4.67015C94.4275 4.60106 94.456 4.5432 94.4906 4.5432C94.526 4.5432 94.5545 4.4862 94.5545 4.41625C94.5545 4.34716 94.583 4.2893 94.6184 4.2893C94.6529 4.2893 94.6814 4.2323 94.6814 4.16235C94.6814 4.09326 94.7099 4.0354 94.7454 4.0354C94.7799 4.0354 94.8084 3.98445 94.8084 3.92313C94.8084 3.86009 94.8654 3.76769 94.9353 3.7176C95.0053 3.66751 95.0623 3.57597 95.0623 3.51379C95.0623 3.45161 95.0908 3.40066 95.1262 3.40066C95.1607 3.40066 95.1892 3.34366 95.1892 3.27371C95.1892 3.20376 95.2177 3.14676 95.2531 3.14676C95.2877 3.14676 95.3162 3.08977 95.3162 3.01981C95.3162 2.94986 95.3447 2.89287 95.3801 2.89287C95.4146 2.89287 95.4431 2.84796 95.4431 2.79269C95.4431 2.6761 95.2937 2.51202 95.1875 2.51202C95.1469 2.51202 95.0329 2.42566 94.9353 2.32203C94.8378 2.21667 94.7117 2.13117 94.6564 2.13117C94.6003 2.13117 94.5545 2.10268 94.5545 2.06727C94.5545 2.03272 94.5035 2.00423 94.4414 2.00423C94.3792 2.00423 94.2877 1.94637 94.2367 1.87728C94.1866 1.80733 94.0951 1.75033 94.0329 1.75033C93.9707 1.75033 93.9198 1.72097 93.9198 1.68642C93.9198 1.65188 93.8628 1.62252 93.7928 1.62252C93.7229 1.62252 93.6659 1.59402 93.6659 1.55947C93.6659 1.52493 93.5804 1.49557 93.475 1.49557C93.3705 1.49557 93.285 1.46707 93.285 1.43253C93.285 1.39798 93.228 1.36862 93.1581 1.36862C93.0881 1.36862 93.0311 1.34012 93.0311 1.30558C93.0311 1.27103 92.9448 1.24167 92.8403 1.24167C92.7358 1.24167 92.6503 1.21317 92.6503 1.17863C92.6503 1.14409 92.5639 1.11472 92.4594 1.11472C92.3549 1.11472 92.2686 1.08622 92.2686 1.05168C92.2686 1.01714 92.1546 0.987774 92.0147 0.987774C91.8756 0.987774 91.7608 0.959276 91.7608 0.924732C91.7608 0.890188 91.6468 0.860826 91.5069 0.860826C91.3678 0.860826 91.253 0.832327 91.253 0.797783C91.253 0.76324 91.139 0.733877 90.9991 0.733877C90.8592 0.733877 90.7452 0.705379 90.7452 0.670835C90.7452 0.6337 90.5336 0.606929 90.2374 0.606929C89.9412 0.606929 89.7296 0.581021 89.7296 0.543887C89.7296 0.503298 89.3064 0.47998 88.5871 0.47998C87.8668 0.47998 87.4436 0.503298 87.4436 0.543887ZM1.10141 10.1937V19.5266H14.4336V16.6068H4.52988V8.82317C4.52988 2.16399 4.51607 1.02836 4.43921 0.95064C4.36494 0.878098 4.04713 0.860826 2.72497 0.860826H1.10141V10.1937ZM24.9885 1.02145C24.9084 1.10793 24.8581 1.2178 24.8451 1.33494C24.8451 1.42389 24.8166 1.49557 24.7821 1.49557C24.7475 1.49557 24.7181 1.55343 24.7181 1.62252C24.7181 1.69247 24.6896 1.75033 24.6551 1.75033C24.6206 1.75033 24.5912 1.80733 24.5912 1.87728C24.5912 1.94637 24.5627 2.00423 24.5282 2.00423C24.4936 2.00423 24.4643 2.06122 24.4643 2.13117C24.4643 2.20026 24.4358 2.25812 24.4012 2.25812C24.3667 2.25812 24.3373 2.34362 24.3373 2.44811C24.3373 2.55261 24.3088 2.63811 24.2743 2.63811C24.2397 2.63811 24.2104 2.69597 24.2104 2.76592C24.2104 2.835 24.1819 2.89287 24.1473 2.89287C24.1128 2.89287 24.0834 2.94986 24.0834 3.01981C24.0834 3.0889 24.0549 3.14676 24.0204 3.14676C23.9858 3.14676 23.9565 3.20376 23.9565 3.27371C23.9565 3.3428 23.928 3.40066 23.8934 3.40066C23.8589 3.40066 23.8295 3.48702 23.8295 3.59065C23.8295 3.69601 23.801 3.78151 23.7665 3.78151C23.7319 3.78151 23.7026 3.8385 23.7026 3.90845C23.7026 3.97754 23.6741 4.0354 23.6395 4.0354C23.605 4.0354 23.5756 4.0924 23.5756 4.16235C23.5756 4.2323 23.5471 4.2893 23.5126 4.2893C23.478 4.2893 23.4487 4.3463 23.4487 4.41625C23.4487 4.4862 23.4202 4.5432 23.3856 4.5432C23.3511 4.5432 23.3217 4.62956 23.3217 4.73319C23.3217 4.83855 23.2932 4.92404 23.2587 4.92404C23.2241 4.92404 23.1948 4.98104 23.1948 5.05099C23.1948 5.12094 23.1663 5.17794 23.1317 5.17794C23.0972 5.17794 23.0678 5.23494 23.0678 5.30489C23.0678 5.37484 23.0393 5.43184 23.0048 5.43184C22.9702 5.43184 22.9409 5.4897 22.9409 5.55878C22.9409 5.62874 22.9124 5.68573 22.8778 5.68573C22.8424 5.68573 22.8139 5.77209 22.8139 5.87659C22.8139 5.98108 22.7854 6.06658 22.75 6.06658C22.7155 6.06658 22.687 6.12444 22.687 6.19439C22.687 6.26348 22.6585 6.32134 22.6231 6.32134C22.5885 6.32134 22.56 6.37834 22.56 6.44829C22.56 6.51737 22.5315 6.57524 22.4961 6.57524C22.4616 6.57524 22.4331 6.65469 22.4331 6.75141C22.4331 6.85504 22.3813 6.96558 22.3061 7.01912C22.2665 7.05162 22.2346 7.09247 22.2127 7.13876C22.1907 7.18504 22.1793 7.23561 22.1792 7.28684C22.1792 7.38442 22.1507 7.46388 22.1153 7.46388C22.0807 7.46388 22.0522 7.52087 22.0522 7.59082C22.0522 7.65991 22.0237 7.71777 21.9883 7.71777C21.9538 7.71777 21.9253 7.77477 21.9253 7.84472C21.9253 7.91381 21.8968 7.97167 21.8614 7.97167C21.8268 7.97167 21.7983 8.02867 21.7983 8.09862C21.7983 8.16771 21.7698 8.22557 21.7344 8.22557C21.6999 8.22557 21.6714 8.31192 21.6714 8.41556C21.6714 8.52092 21.6429 8.60641 21.6075 8.60641C21.5729 8.60641 21.5444 8.66341 21.5444 8.73336C21.5444 8.80331 21.5159 8.86031 21.4805 8.86031C21.446 8.86031 21.4175 8.94667 21.4175 9.0503C21.4175 9.15566 21.3881 9.24115 21.3536 9.24115C21.319 9.24115 21.2905 9.29902 21.2905 9.3681C21.2905 9.43805 21.2612 9.49505 21.2266 9.49505C21.1921 9.49505 21.1636 9.55205 21.1636 9.622C21.1636 9.69195 21.1342 9.74895 21.0997 9.74895C21.0651 9.74895 21.0366 9.80681 21.0366 9.8759C21.0366 9.94585 21.0073 10.0028 20.9727 10.0028C20.9382 10.0028 20.9097 10.0607 20.9097 10.1298C20.9097 10.1997 20.8803 10.2576 20.8458 10.2576C20.8112 10.2576 20.7819 10.3146 20.7819 10.3846C20.7819 10.4536 20.7534 10.5115 20.7188 10.5115C20.6843 10.5115 20.6549 10.5685 20.6549 10.6385C20.6549 10.7075 20.6264 10.7654 20.5919 10.7654C20.5573 10.7654 20.528 10.8509 20.528 10.9554C20.528 11.0599 20.4995 11.1454 20.4649 11.1454C20.4304 11.1454 20.401 11.2032 20.401 11.2732C20.401 11.3423 20.3725 11.4001 20.338 11.4001C20.3034 11.4001 20.2741 11.4865 20.2741 11.5901C20.2741 11.6955 20.2456 11.7801 20.211 11.7801C20.1765 11.7801 20.1471 11.838 20.1471 11.9079C20.1471 11.977 20.1186 12.0349 20.0841 12.0349C20.0496 12.0349 20.0202 12.0919 20.0202 12.1618C20.0202 12.2309 19.9917 12.2888 19.9571 12.2888C19.9226 12.2888 19.8932 12.3458 19.8932 12.4157C19.8932 12.4848 19.8647 12.5427 19.8302 12.5427C19.7957 12.5427 19.7663 12.629 19.7663 12.7327C19.7663 12.838 19.7378 12.9235 19.7032 12.9235C19.6687 12.9235 19.6393 12.9805 19.6393 13.0505C19.6393 13.1204 19.6108 13.1774 19.5763 13.1774C19.5418 13.1774 19.5124 13.2344 19.5124 13.3044C19.5124 13.3743 19.4839 13.4313 19.4494 13.4313C19.4148 13.4313 19.3854 13.4883 19.3854 13.5583C19.3854 13.6282 19.3569 13.6852 19.3224 13.6852C19.2879 13.6852 19.2585 13.7422 19.2585 13.8122C19.2585 13.8821 19.23 13.9391 19.1955 13.9391C19.1609 13.9391 19.1315 14.0255 19.1315 14.13C19.1315 14.2345 19.1031 14.32 19.0685 14.32C19.034 14.32 19.0046 14.3778 19.0046 14.4469C19.0046 14.5169 18.9761 14.5747 18.9416 14.5747C18.907 14.5747 18.8777 14.6317 18.8777 14.7017C18.8777 14.7708 18.8492 14.8286 18.8137 14.8286C18.7792 14.8286 18.7507 14.9141 18.7507 15.0186C18.7507 15.124 18.7222 15.2086 18.6877 15.2086C18.6523 15.2086 18.6238 15.2665 18.6238 15.3364C18.6238 15.4055 18.5953 15.4634 18.5599 15.4634C18.5253 15.4634 18.4968 15.5204 18.4968 15.5903C18.4968 15.6594 18.4683 15.7173 18.4329 15.7173C18.3984 15.7173 18.3699 15.7743 18.3699 15.8442C18.3699 15.9133 18.3414 15.9712 18.306 15.9712C18.2714 15.9712 18.2429 16.0575 18.2429 16.1611C18.2429 16.2665 18.2144 16.352 18.179 16.352C18.1445 16.352 18.116 16.409 18.116 16.4789C18.116 16.548 18.0875 16.6059 18.0521 16.6059C18.0175 16.6059 17.989 16.6629 17.989 16.7328C17.989 16.8019 17.9605 16.8598 17.9251 16.8598C17.8906 16.8598 17.8621 16.9168 17.8621 16.9867C17.8621 17.0567 17.8336 17.1137 17.7982 17.1137C17.7636 17.1137 17.7351 17.1707 17.7351 17.2406C17.7351 17.3106 17.7066 17.3676 17.6712 17.3676C17.6367 17.3676 17.6082 17.4539 17.6082 17.5576C17.6082 17.6629 17.5797 17.7484 17.5443 17.7484C17.5097 17.7484 17.4812 17.8063 17.4812 17.8754C17.4812 17.9453 17.4527 18.0023 17.4173 18.0023C17.3828 18.0023 17.3543 18.0593 17.3543 18.1293C17.3543 18.1992 17.3258 18.2562 17.2904 18.2562C17.2558 18.2562 17.2273 18.3426 17.2273 18.4471C17.2273 18.5516 17.198 18.6371 17.1634 18.6371C17.1289 18.6371 17.1004 18.6949 17.1004 18.7649C17.1004 18.834 17.071 18.8918 17.0365 18.8918C17.0019 18.8918 16.9734 18.9488 16.9734 19.0188C16.9734 19.0879 16.9441 19.1457 16.9095 19.1457C16.875 19.1457 16.8456 19.2027 16.8456 19.2727C16.8456 19.3418 16.8171 19.3996 16.7826 19.3996C16.7659 19.3998 16.75 19.4066 16.7382 19.4183C16.7265 19.4301 16.7198 19.446 16.7195 19.4627C16.7195 19.5033 17.3543 19.5266 18.4968 19.5266C20.2326 19.5266 20.2741 19.5231 20.2741 19.3996C20.2741 19.3297 20.3026 19.2727 20.338 19.2727C20.3725 19.2727 20.401 19.2148 20.401 19.1457C20.401 19.0758 20.4304 19.0188 20.4649 19.0188C20.4995 19.0188 20.528 18.9324 20.528 18.8288C20.528 18.7234 20.5573 18.6371 20.5919 18.6371C20.6264 18.6371 20.6549 18.5801 20.6549 18.511C20.6549 18.441 20.6843 18.3832 20.7188 18.3832C20.7534 18.3832 20.7819 18.2977 20.7819 18.1932C20.7819 18.0887 20.8112 18.0032 20.8458 18.0032C20.8803 18.0032 20.9088 17.9453 20.9088 17.8754C20.9088 17.8063 20.9382 17.7484 20.9727 17.7484C21.0073 17.7484 21.0358 17.6914 21.0358 17.6215C21.0358 17.5524 21.0651 17.4945 21.0997 17.4945C21.1342 17.4945 21.1636 17.4375 21.1636 17.3676C21.1636 17.2985 21.1921 17.2406 21.2266 17.2406C21.2612 17.2406 21.2905 17.1551 21.2905 17.0506C21.2905 16.9453 21.319 16.8607 21.3536 16.8607C21.3881 16.8607 21.4175 16.8028 21.4175 16.7328C21.4175 16.6638 21.446 16.6059 21.4805 16.6059C21.5151 16.6059 21.5444 16.5489 21.5444 16.4789C21.5444 16.4099 21.5729 16.352 21.6075 16.352C21.642 16.352 21.6714 16.2656 21.6714 16.162C21.6714 16.0566 21.6999 15.9712 21.7344 15.9712C21.769 15.9712 21.7983 15.9142 21.7983 15.8442C21.7983 15.7743 21.8268 15.7173 21.8614 15.7173C21.8959 15.7173 21.9253 15.6723 21.9253 15.6171C21.9253 15.3304 21.813 15.3364 27.0309 15.3364C31.7098 15.3364 31.9559 15.3416 31.9559 15.4487C31.9559 15.5117 32.0129 15.6033 32.0829 15.6533C32.1226 15.6858 32.1546 15.7266 32.1765 15.7729C32.1985 15.8192 32.2099 15.8698 32.2098 15.9211C32.2098 16.0187 32.2383 16.0981 32.2737 16.0981C32.3083 16.0981 32.3368 16.1551 32.3368 16.225C32.3368 16.2941 32.3653 16.352 32.4007 16.352C32.4352 16.352 32.4637 16.409 32.4637 16.4789C32.4637 16.548 32.4922 16.6059 32.5276 16.6059C32.5622 16.6059 32.5907 16.6629 32.5907 16.7328C32.5907 16.8019 32.6192 16.8598 32.6546 16.8598C32.6891 16.8598 32.7176 16.9168 32.7176 16.9867C32.7176 17.0567 32.7461 17.1137 32.7815 17.1137C32.8161 17.1137 32.8446 17.2 32.8446 17.3037C32.8446 17.409 32.8731 17.4945 32.9085 17.4945C32.943 17.4945 32.9715 17.5515 32.9715 17.6215C32.9715 17.6914 33 17.7484 33.0354 17.7484C33.07 17.7484 33.0985 17.8063 33.0985 17.8754C33.0985 17.9453 33.1278 18.0023 33.1624 18.0023C33.1969 18.0023 33.2254 18.0593 33.2254 18.1293C33.2254 18.1992 33.2539 18.2562 33.2893 18.2562C33.3239 18.2562 33.3532 18.3141 33.3532 18.3832C33.3532 18.4531 33.3809 18.511 33.4163 18.511C33.4508 18.511 33.4802 18.568 33.4802 18.6371C33.4802 18.707 33.5087 18.7649 33.5432 18.7649C33.5778 18.7649 33.6071 18.8219 33.6071 18.8918C33.6071 18.9609 33.6356 19.0188 33.6702 19.0188C33.7047 19.0188 33.7332 19.0758 33.7332 19.1457C33.7332 19.2148 33.7626 19.2727 33.7971 19.2727C33.8317 19.2727 33.861 19.3297 33.861 19.3996C33.861 19.524 33.9033 19.5266 35.8292 19.5266C37.0986 19.5266 37.7964 19.5041 37.7964 19.4627C37.7962 19.446 37.7895 19.4301 37.7777 19.4183C37.7659 19.4066 37.75 19.3998 37.7334 19.3996C37.6988 19.3996 37.6695 19.3426 37.6695 19.2727C37.6695 19.2027 37.641 19.1457 37.6064 19.1457C37.5719 19.1457 37.5425 19.0887 37.5425 19.0188C37.5425 18.9488 37.514 18.8918 37.4795 18.8918C37.445 18.8918 37.4156 18.834 37.4156 18.7649C37.4156 18.6949 37.3871 18.6371 37.3525 18.6371C37.318 18.6371 37.2886 18.5801 37.2886 18.511C37.2886 18.441 37.2601 18.3832 37.2256 18.3832C37.1911 18.3832 37.1617 18.2977 37.1617 18.1932C37.1617 18.0887 37.1332 18.0032 37.0987 18.0032C37.0641 18.0032 37.0347 17.9453 37.0347 17.8754C37.0347 17.8063 37.0062 17.7484 36.9717 17.7484C36.9372 17.7484 36.9078 17.6914 36.9078 17.6215C36.9078 17.5524 36.8793 17.4945 36.8447 17.4945C36.8102 17.4945 36.7808 17.4375 36.7808 17.3676C36.7808 17.2985 36.7523 17.2406 36.7178 17.2406C36.6833 17.2406 36.6539 17.1836 36.6539 17.1137C36.6539 17.0446 36.6254 16.9867 36.5909 16.9867C36.5563 16.9867 36.5269 16.9297 36.5269 16.8598C36.5269 16.7907 36.4985 16.7328 36.4639 16.7328C36.4294 16.7328 36.4 16.6758 36.4 16.6059C36.4 16.5368 36.3715 16.4789 36.337 16.4789C36.3024 16.4789 36.2731 16.4219 36.2731 16.352C36.2731 16.2829 36.2446 16.225 36.21 16.225C36.1755 16.225 36.1461 16.1681 36.1461 16.0981C36.1461 16.029 36.1176 15.9712 36.0831 15.9712C36.0485 15.9712 36.0192 15.9142 36.0192 15.8442C36.0192 15.7743 35.9907 15.7173 35.9561 15.7173C35.9216 15.7173 35.8922 15.6603 35.8922 15.5903C35.8922 15.5204 35.8637 15.4634 35.8283 15.4634C35.7938 15.4634 35.7653 15.4064 35.7653 15.3364C35.7653 15.2665 35.7368 15.2095 35.7022 15.2095C35.6677 15.2095 35.6383 15.1231 35.6383 15.0195C35.6383 14.9141 35.6098 14.8286 35.5744 14.8286C35.5399 14.8286 35.5114 14.7708 35.5114 14.7017C35.5114 14.6317 35.4829 14.5747 35.4475 14.5747C35.4129 14.5747 35.3844 14.5169 35.3844 14.4469C35.3844 14.3778 35.3559 14.3208 35.3205 14.3208C35.286 14.3208 35.2575 14.263 35.2575 14.193C35.2575 14.1239 35.229 14.0661 35.1936 14.0661C35.159 14.0661 35.1305 14.0091 35.1305 13.9391C35.1305 13.87 35.102 13.8122 35.0666 13.8122C35.0321 13.8122 35.0036 13.7552 35.0036 13.6852C35.0036 13.6161 34.9751 13.5583 34.9397 13.5583C34.9051 13.5583 34.8766 13.5013 34.8766 13.4313C34.8766 13.3622 34.8481 13.3044 34.8127 13.3044C34.7782 13.3044 34.7497 13.2474 34.7497 13.1774C34.7497 13.1083 34.7212 13.0505 34.6858 13.0505C34.6512 13.0505 34.6227 12.9935 34.6227 12.9235C34.6227 12.8544 34.5942 12.7966 34.5588 12.7966C34.5243 12.7966 34.4958 12.7396 34.4958 12.6696C34.4958 12.6005 34.4673 12.5427 34.4319 12.5427C34.3973 12.5427 34.3688 12.4857 34.3688 12.4157C34.3688 12.3466 34.3403 12.2888 34.3049 12.2888C34.2704 12.2888 34.2419 12.2318 34.2419 12.1618C34.2419 12.0927 34.2134 12.0349 34.178 12.0349C34.1434 12.0349 34.1149 11.9485 34.1149 11.8449C34.1149 11.7395 34.0856 11.654 34.051 11.654C34.0165 11.654 33.988 11.597 33.988 11.5271C33.988 11.4571 33.9595 11.4001 33.9241 11.4001C33.8895 11.4001 33.861 11.3431 33.861 11.2732C33.861 11.2032 33.8325 11.1462 33.7971 11.1462C33.7626 11.1462 33.7332 11.0892 33.7332 11.0193C33.7332 10.9493 33.7047 10.8923 33.6702 10.8923C33.6356 10.8923 33.6063 10.8354 33.6063 10.7654C33.6063 10.6954 33.5778 10.6385 33.5432 10.6385C33.5087 10.6385 33.4802 10.5815 33.4802 10.5115C33.4802 10.4416 33.4508 10.3846 33.4163 10.3846C33.3817 10.3846 33.3532 10.3267 33.3532 10.2576C33.3532 10.1877 33.3239 10.1298 33.2893 10.1298C33.2548 10.1298 33.2254 10.0728 33.2254 10.0037C33.2254 9.93376 33.1969 9.8759 33.1624 9.8759C33.1278 9.8759 33.0985 9.8189 33.0985 9.74895C33.0985 9.67986 33.07 9.622 33.0354 9.622C33.0009 9.622 32.9715 9.565 32.9715 9.49505C32.9715 9.42596 32.943 9.3681 32.9085 9.3681C32.8739 9.3681 32.8446 9.3111 32.8446 9.24115C32.8446 9.17207 32.8161 9.11421 32.7815 9.11421C32.747 9.11421 32.7176 9.05721 32.7176 8.98726C32.7176 8.91817 32.6891 8.86031 32.6546 8.86031C32.62 8.86031 32.5907 8.77481 32.5907 8.67032C32.5907 8.56496 32.5622 8.48033 32.5276 8.48033C32.4931 8.48033 32.4637 8.42247 32.4637 8.35251C32.4637 8.28343 32.4352 8.22557 32.4007 8.22557C32.3661 8.22557 32.3368 8.16857 32.3368 8.09862C32.3368 8.02953 32.3083 7.97167 32.2737 7.97167C32.2392 7.97167 32.2098 7.91467 32.2098 7.84472C32.2098 7.77563 32.1813 7.71777 32.1468 7.71777C32.1123 7.71777 32.0829 7.66077 32.0829 7.59082C32.0829 7.52087 32.0544 7.46388 32.0198 7.46388C31.9853 7.46388 31.9559 7.40688 31.9559 7.33693C31.9559 7.26698 31.9274 7.20998 31.8929 7.20998C31.8584 7.20998 31.829 7.15298 31.829 7.08303C31.829 7.01308 31.8005 6.95608 31.7659 6.95608C31.7314 6.95608 31.702 6.89908 31.702 6.82913C31.702 6.75918 31.6735 6.70218 31.6381 6.70218C31.6036 6.70218 31.5751 6.64519 31.5751 6.57524C31.5751 6.50528 31.5466 6.44829 31.5112 6.44829C31.4766 6.44829 31.4481 6.39043 31.4481 6.32134C31.4481 6.25139 31.4196 6.19439 31.3842 6.19439C31.3497 6.19439 31.3212 6.13653 31.3212 6.06744C31.3212 5.99749 31.2927 5.94049 31.2582 5.94049C31.2227 5.94049 31.1942 5.88263 31.1942 5.81268C31.1942 5.74359 31.1658 5.68573 31.1303 5.68573C31.0958 5.68573 31.0673 5.62874 31.0673 5.55878C31.0673 5.4897 31.0388 5.43184 31.0034 5.43184C30.9688 5.43184 30.9404 5.37484 30.9404 5.30489C30.9404 5.2358 30.9119 5.17794 30.8764 5.17794C30.8419 5.17794 30.8134 5.09849 30.8134 5.00177C30.8134 4.89813 30.7616 4.78759 30.6865 4.73405C30.6488 4.70292 30.618 4.66425 30.5961 4.62052C30.5743 4.5768 30.5618 4.52899 30.5595 4.48015C30.5572 4.43132 30.5447 4.38351 30.5229 4.33978C30.501 4.29606 30.4702 4.25739 30.4326 4.22626C30.3929 4.1938 30.361 4.15296 30.339 4.10666C30.3171 4.06037 30.3056 4.00978 30.3056 3.95854C30.3056 3.86096 30.2771 3.78151 30.2417 3.78151C30.2072 3.78151 30.1787 3.72451 30.1787 3.65456C30.1787 3.58547 30.1502 3.52761 30.1148 3.52761C30.0802 3.52761 30.0517 3.47061 30.0517 3.40066C30.0517 3.33071 30.0232 3.27371 29.9878 3.27371C29.9533 3.27371 29.9248 3.21671 29.9248 3.14676C29.9248 3.07681 29.8963 3.01981 29.8609 3.01981C29.8263 3.01981 29.7978 2.96282 29.7978 2.89287C29.7978 2.82291 29.7685 2.76592 29.7339 2.76592C29.6994 2.76592 29.6709 2.70892 29.6709 2.63897C29.6709 2.56902 29.6415 2.51202 29.607 2.51202C29.5724 2.51202 29.5439 2.45502 29.5439 2.38507C29.5439 2.31512 29.5154 2.25812 29.48 2.25812C29.4455 2.25812 29.417 2.20026 29.417 2.13117C29.417 2.06122 29.3876 2.00423 29.3531 2.00423C29.3185 2.00423 29.2892 1.94637 29.2892 1.87728C29.2892 1.80733 29.2607 1.75033 29.2261 1.75033C29.1916 1.75033 29.1622 1.69247 29.1622 1.62252C29.1622 1.55343 29.1337 1.49557 29.0992 1.49557C29.0646 1.49557 29.0353 1.43857 29.0353 1.36862C29.0353 1.29953 29.0068 1.24167 28.9722 1.24167C28.9377 1.24167 28.9083 1.19676 28.9083 1.14236C28.9083 0.874643 28.8133 0.860826 26.929 0.865144L25.1309 0.868598L24.9885 1.02145ZM97.7291 2.29439C97.7291 3.45161 97.7463 3.74523 97.8197 3.81778C97.8957 3.89377 98.4061 3.90845 100.994 3.90845H104.077V19.5266H107.379V3.90845H113.982V0.860826H97.7291V2.29439ZM116.902 10.1937V19.5266H131.504V16.6068H120.33V11.6532H125.028C129.684 11.6532 129.726 11.6523 129.726 11.5262C129.726 11.4563 129.755 11.3993 129.79 11.3993C129.83 11.3993 129.853 11.0392 129.853 10.4467C129.853 9.85431 129.83 9.49419 129.79 9.49419C129.699 9.49419 129.711 9.25756 129.806 9.21438C129.87 9.18416 129.87 9.16948 129.806 9.14011C129.762 9.11939 129.726 9.01921 129.726 8.91817V8.7325H120.33V3.90932H131.123V0.860826H116.902V10.1937ZM69.1596 3.84541C69.1596 3.88168 69.3496 3.90845 69.6044 3.90845C69.8583 3.90845 70.0483 3.93609 70.0483 3.97236C70.0483 4.0069 70.1623 4.0354 70.3022 4.0354C70.4421 4.0354 70.556 4.0639 70.556 4.09931C70.556 4.13385 70.6424 4.16235 70.746 4.16235C70.8514 4.16235 70.9369 4.19085 70.9369 4.22626C70.9369 4.2608 71.0233 4.2893 71.1269 4.2893C71.2322 4.2893 71.3186 4.3178 71.3186 4.35321C71.3186 4.38775 71.3756 4.41625 71.4455 4.41625C71.5146 4.41625 71.5725 4.44475 71.5725 4.48015C71.5725 4.5147 71.6295 4.5432 71.6995 4.5432C71.7685 4.5432 71.8264 4.57169 71.8264 4.6071C71.8264 4.64165 71.8765 4.67015 71.9387 4.67015C72.0008 4.67015 72.0933 4.72714 72.1433 4.79709C72.1943 4.86704 72.2737 4.92404 72.3212 4.92404C72.3687 4.92404 72.5173 5.0389 72.6511 5.17794C72.7859 5.31784 72.9275 5.43184 72.9663 5.43184C73.0579 5.43184 73.4767 5.85154 73.4767 5.94308C73.4767 5.98195 73.5907 6.12358 73.7306 6.25743C73.8705 6.39129 73.9845 6.54069 73.9845 6.58733C73.9845 6.63482 74.0415 6.71514 74.1115 6.76523C74.1814 6.81618 74.2384 6.90772 74.2384 6.9699C74.2384 7.03208 74.2669 7.08217 74.3023 7.08217C74.3369 7.08217 74.3654 7.14003 74.3654 7.20998C74.3654 7.27907 74.3939 7.33693 74.4293 7.33693C74.4638 7.33693 74.4923 7.39392 74.4923 7.46388C74.4923 7.53296 74.5208 7.59082 74.5562 7.59082C74.5908 7.59082 74.6193 7.67718 74.6193 7.78081C74.6193 7.88617 74.6478 7.97167 74.6832 7.97167C74.7177 7.97167 74.7462 8.05803 74.7462 8.16166C74.7462 8.26702 74.7747 8.35251 74.8101 8.35251C74.8447 8.35251 74.8732 8.46651 74.8732 8.60641C74.8732 8.74631 74.9017 8.86031 74.9371 8.86031C74.9716 8.86031 75.0001 9.02957 75.0001 9.24115C75.0001 9.45273 75.0286 9.622 75.064 9.622C75.102 9.622 75.1271 9.85517 75.1271 10.1937C75.1271 10.5322 75.1012 10.7654 75.064 10.7654C75.0277 10.7654 75.0001 10.9554 75.0001 11.2093C75.0001 11.4632 74.9733 11.654 74.9371 11.654C74.9025 11.654 74.8732 11.768 74.8732 11.9079C74.8732 12.0478 74.8447 12.1618 74.8101 12.1618C74.7756 12.1618 74.7462 12.2482 74.7462 12.3518C74.7462 12.4572 74.7177 12.5427 74.6832 12.5427C74.6486 12.5427 74.6193 12.5997 74.6193 12.6696C74.6193 12.7396 74.5908 12.7966 74.5562 12.7966C74.5217 12.7966 74.4923 12.8829 74.4923 12.9866C74.4923 13.0919 74.4638 13.1774 74.4293 13.1774C74.3947 13.1774 74.3654 13.2292 74.3654 13.2906C74.3654 13.3527 74.3084 13.4443 74.2384 13.4952C74.1693 13.5453 74.1115 13.6308 74.1115 13.6852C74.1115 13.7396 74.0545 13.826 73.9845 13.8752C73.9154 13.927 73.8576 14.0047 73.8576 14.0497C73.8576 14.1567 72.6779 15.3364 72.5708 15.3364C72.5259 15.3364 72.4482 15.3934 72.3981 15.4634C72.3463 15.5324 72.2547 15.5903 72.1926 15.5903C72.1304 15.5903 72.0803 15.6188 72.0803 15.6533C72.0803 15.6879 72.0285 15.7173 71.9672 15.7173C71.905 15.7173 71.8126 15.7743 71.7625 15.8442C71.7124 15.9133 71.62 15.9712 71.5578 15.9712C71.4956 15.9712 71.4455 15.9997 71.4455 16.0342C71.4455 16.0687 71.3592 16.0981 71.2547 16.0981C71.1502 16.0981 71.0647 16.1266 71.0647 16.1611C71.0647 16.1957 71.0068 16.225 70.9369 16.225C70.8678 16.225 70.8099 16.2535 70.8099 16.2881C70.8099 16.3226 70.696 16.352 70.556 16.352C70.417 16.352 70.3022 16.3805 70.3022 16.415C70.3022 16.4496 70.1597 16.4789 69.9852 16.4789C69.8099 16.4789 69.6674 16.5074 69.6674 16.542C69.6674 16.5826 69.265 16.6059 68.5879 16.6059C67.9109 16.6059 67.5084 16.5826 67.5084 16.5429C67.5084 16.5083 67.3659 16.4789 67.1915 16.4789C67.017 16.4789 66.8737 16.4504 66.8737 16.415C66.8737 16.3805 66.7597 16.352 66.6198 16.352C66.4807 16.352 66.3659 16.3235 66.3659 16.289C66.3659 16.2535 66.3089 16.225 66.2389 16.225C66.1698 16.225 66.112 16.1966 66.112 16.1611C66.112 16.1266 66.0265 16.0981 65.922 16.0981C65.8166 16.0981 65.732 16.0696 65.732 16.0342C65.732 15.9997 65.6741 15.9712 65.6042 15.9712C65.5351 15.9712 65.4772 15.9427 65.4772 15.9072C65.4772 15.8727 65.4263 15.8442 65.365 15.8442C65.3019 15.8442 65.2095 15.7872 65.1603 15.7173C65.1094 15.6473 65.0239 15.5903 64.9695 15.5903C64.9151 15.5903 64.8296 15.5333 64.7795 15.4634C64.7285 15.3934 64.6499 15.3364 64.605 15.3364C64.4988 15.3364 63.3183 14.1567 63.3183 14.0497C63.3183 14.0047 63.2613 13.9262 63.1913 13.8761C63.1222 13.826 63.0652 13.7336 63.0652 13.6714C63.0652 13.6092 63.0359 13.5591 63.0013 13.5591C62.9668 13.5591 62.9383 13.5073 62.9383 13.446C62.9383 13.3838 62.8804 13.2914 62.8105 13.2413C62.7414 13.1904 62.6835 13.0988 62.6835 13.0367C62.6835 12.9745 62.655 12.9244 62.6205 12.9244C62.5859 12.9244 62.5566 12.838 62.5566 12.7335C62.5566 12.6282 62.5281 12.5435 62.4935 12.5435C62.459 12.5435 62.4296 12.4572 62.4296 12.3527C62.4296 12.2473 62.4011 12.1618 62.3666 12.1618C62.332 12.1618 62.3027 12.0755 62.3027 11.9718C62.3027 11.8665 62.2742 11.781 62.2396 11.781C62.2042 11.781 62.1757 11.6117 62.1757 11.4001C62.1757 11.1886 62.1481 11.0193 62.1127 11.0193C62.0738 11.0193 62.0488 10.7231 62.0488 10.2567C62.0488 9.79213 62.0738 9.49505 62.1127 9.49505C62.1472 9.49505 62.1757 9.32579 62.1757 9.11507C62.1757 8.90262 62.2042 8.73336 62.2396 8.73336C62.2742 8.73336 62.3027 8.61937 62.3027 8.47946C62.3027 8.33956 62.3312 8.22557 62.3666 8.22557C62.4011 8.22557 62.4296 8.13921 62.4296 8.03557C62.4296 7.93022 62.4581 7.84472 62.4935 7.84472C62.5281 7.84472 62.5566 7.78772 62.5566 7.71777C62.5566 7.64868 62.5859 7.59082 62.6205 7.59082C62.655 7.59082 62.6835 7.53383 62.6835 7.46388C62.6835 7.39392 62.7129 7.33693 62.7474 7.33693C62.782 7.33693 62.8105 7.27993 62.8105 7.20998C62.8105 7.14003 62.839 7.08303 62.8744 7.08303C62.9089 7.08303 62.9374 7.03121 62.9374 6.9699C62.9374 6.90772 62.9953 6.81618 63.0652 6.76523C63.1343 6.71514 63.1913 6.63482 63.1913 6.58646C63.1913 6.5381 63.2777 6.41892 63.3822 6.32134C63.4867 6.22289 63.5722 6.11062 63.5722 6.0709C63.5722 5.97935 64.1188 5.43184 64.2112 5.43184C64.2492 5.43184 64.3908 5.31784 64.5247 5.17794C64.6594 5.0389 64.808 4.92404 64.8555 4.92404C64.903 4.92404 64.9824 4.86704 65.0334 4.79709C65.0835 4.72801 65.175 4.67015 65.2372 4.67015C65.2993 4.67015 65.3503 4.64165 65.3503 4.6071C65.3503 4.57256 65.4073 4.5432 65.4772 4.5432C65.5472 4.5432 65.6042 4.5147 65.6042 4.48015C65.6042 4.44561 65.6612 4.41625 65.7311 4.41625C65.8011 4.41625 65.8581 4.38775 65.8581 4.35321C65.8581 4.31866 65.9445 4.2893 66.0481 4.2893C66.1534 4.2893 66.2389 4.2608 66.2389 4.22626C66.2389 4.19171 66.3253 4.16235 66.4289 4.16235C66.5343 4.16235 66.6198 4.13385 66.6198 4.09931C66.6198 4.06476 66.7346 4.0354 66.8737 4.0354C67.0136 4.0354 67.1276 4.0069 67.1276 3.97236C67.1276 3.93609 67.3184 3.90845 67.5723 3.90845C67.8262 3.90845 68.0171 3.88168 68.0171 3.84541C68.0171 3.80741 68.2503 3.78151 68.5879 3.78151C68.9264 3.78151 69.1596 3.80741 69.1596 3.84541ZM26.9125 4.38084C26.9635 4.4321 26.9958 4.49902 27.0041 4.57083C27.0041 4.62524 27.0326 4.67015 27.0671 4.67015C27.1017 4.67015 27.131 4.7565 27.131 4.86014C27.131 4.96549 27.1595 5.05099 27.1941 5.05099C27.2286 5.05099 27.258 5.10799 27.258 5.17794C27.258 5.24789 27.2865 5.30489 27.3219 5.30489C27.3564 5.30489 27.3849 5.36275 27.3849 5.43184C27.3849 5.50179 27.4134 5.55878 27.448 5.55878C27.4834 5.55878 27.5119 5.61665 27.5119 5.68573C27.5119 5.75568 27.5404 5.81268 27.5758 5.81268C27.6103 5.81268 27.6388 5.87054 27.6388 5.94049C27.6388 6.00958 27.6673 6.06744 27.7027 6.06744C27.7373 6.06744 27.7658 6.12444 27.7658 6.19439C27.7658 6.26348 27.7943 6.32134 27.8297 6.32134C27.8642 6.32134 27.8927 6.37834 27.8927 6.44829C27.8927 6.51737 27.9212 6.57524 27.9566 6.57524C27.9912 6.57524 28.0197 6.66073 28.0197 6.76523C28.0197 6.87059 28.0482 6.95522 28.0836 6.95522C28.1181 6.95522 28.1466 7.01308 28.1466 7.08303C28.1466 7.15212 28.1751 7.20998 28.2105 7.20998C28.2451 7.20998 28.2736 7.26698 28.2736 7.33693C28.2736 7.40601 28.3021 7.46388 28.3375 7.46388C28.372 7.46388 28.4005 7.52087 28.4005 7.59082C28.4005 7.65991 28.429 7.71777 28.4644 7.71777C28.499 7.71777 28.5275 7.80413 28.5275 7.90776C28.5275 8.01312 28.556 8.09862 28.5914 8.09862C28.6259 8.09862 28.6544 8.15561 28.6544 8.22557C28.6544 8.29465 28.6829 8.35251 28.7183 8.35251C28.7529 8.35251 28.7814 8.40951 28.7814 8.47946C28.7814 8.54941 28.8099 8.60641 28.8453 8.60641C28.8798 8.60641 28.9083 8.66341 28.9083 8.73336C28.9083 8.80331 28.9368 8.86031 28.9722 8.86031C29.0068 8.86031 29.0353 8.91731 29.0353 8.98726C29.0353 9.05721 29.0646 9.11421 29.0992 9.11421C29.1337 9.11421 29.1631 9.1712 29.1631 9.24115C29.1631 9.3111 29.1907 9.3681 29.2261 9.3681C29.2607 9.3681 29.2892 9.4251 29.2892 9.49505C29.2892 9.565 29.3185 9.622 29.3531 9.622C29.3876 9.622 29.417 9.70836 29.417 9.81199C29.417 9.91735 29.4455 10.0028 29.48 10.0028C29.5146 10.0028 29.5439 10.0607 29.5439 10.1298C29.5439 10.1997 29.5724 10.2576 29.607 10.2576C29.6415 10.2576 29.6709 10.3146 29.6709 10.3846C29.6709 10.4536 29.6994 10.5115 29.7339 10.5115C29.7685 10.5115 29.7978 10.5685 29.7978 10.6385C29.7978 10.7075 29.8263 10.7654 29.8609 10.7654C29.8954 10.7654 29.9248 10.8509 29.9248 10.9554C29.9248 11.0599 29.9533 11.1454 29.9878 11.1454C30.0224 11.1454 30.0517 11.2032 30.0517 11.2732C30.0517 11.3423 30.0802 11.4001 30.1148 11.4001C30.1493 11.4001 30.1787 11.4571 30.1787 11.5271C30.1787 11.5962 30.2072 11.654 30.2417 11.654C30.2762 11.654 30.3056 11.711 30.3056 11.781C30.3056 11.8501 30.3341 11.9079 30.3687 11.9079C30.4032 11.9079 30.4326 11.9649 30.4326 12.0349C30.4326 12.104 30.4611 12.1618 30.4956 12.1618C30.5301 12.1618 30.5595 12.2188 30.5595 12.2888C30.5595 12.414 30.5163 12.4157 26.941 12.4157C23.364 12.4157 23.3226 12.414 23.3226 12.2888C23.3226 12.2197 23.3502 12.1618 23.3856 12.1618C23.4202 12.1618 23.4487 12.1048 23.4487 12.0349C23.4487 11.9658 23.4772 11.9079 23.5126 11.9079C23.5471 11.9079 23.5756 11.8216 23.5756 11.7179C23.5756 11.6126 23.6041 11.5271 23.6395 11.5271C23.6741 11.5271 23.7026 11.4701 23.7026 11.4001C23.7026 11.3302 23.7311 11.2732 23.7665 11.2732C23.801 11.2732 23.8295 11.2162 23.8295 11.1462C23.8295 11.0763 23.858 11.0193 23.8934 11.0193C23.928 11.0193 23.9565 10.9329 23.9565 10.8293C23.9565 10.7239 23.985 10.6385 24.0204 10.6385C24.0549 10.6385 24.0834 10.5815 24.0834 10.5115C24.0834 10.4416 24.1119 10.3846 24.1473 10.3846C24.1819 10.3846 24.2104 10.3267 24.2104 10.2576C24.2104 10.1877 24.2389 10.1298 24.2743 10.1298C24.3088 10.1298 24.3373 10.0443 24.3373 9.9398C24.3373 9.83531 24.3658 9.74981 24.4012 9.74981C24.4358 9.74981 24.4643 9.69195 24.4643 9.622C24.4643 9.55291 24.4927 9.49505 24.5282 9.49505C24.5627 9.49505 24.5912 9.40956 24.5912 9.30506C24.5912 9.20057 24.6197 9.11507 24.6551 9.11507C24.6896 9.11507 24.7181 9.05721 24.7181 8.98726C24.7181 8.91817 24.7475 8.86031 24.7821 8.86031C24.8166 8.86031 24.8451 8.80331 24.8451 8.73336C24.8451 8.66427 24.8736 8.60641 24.909 8.60641C24.9435 8.60641 24.972 8.52005 24.972 8.41642C24.972 8.31106 25.0014 8.22643 25.036 8.22643C25.0705 8.22643 25.0999 8.16857 25.0999 8.09862C25.0999 8.02953 25.1284 7.97167 25.1629 7.97167C25.1974 7.97167 25.2259 7.91467 25.2259 7.84472C25.2259 7.77563 25.2553 7.71777 25.2898 7.71777C25.3244 7.71777 25.3538 7.66077 25.3538 7.59082C25.3538 7.52087 25.3823 7.46388 25.4168 7.46388C25.4513 7.46388 25.4807 7.37752 25.4807 7.27388C25.4807 7.16853 25.5092 7.08303 25.5437 7.08303C25.5783 7.08303 25.6076 7.02603 25.6076 6.95608C25.6076 6.88613 25.6361 6.82913 25.6707 6.82913C25.7052 6.82913 25.7346 6.77214 25.7346 6.70218C25.7346 6.63223 25.7631 6.57524 25.7976 6.57524C25.8322 6.57524 25.8615 6.48888 25.8615 6.38524C25.8615 6.27989 25.89 6.19439 25.9246 6.19439C25.9591 6.19439 25.9885 6.13653 25.9885 6.06744C25.9885 5.99749 26.017 5.94049 26.0515 5.94049C26.0861 5.94049 26.1154 5.85413 26.1154 5.74964C26.1154 5.64514 26.1439 5.55965 26.1785 5.55965C26.213 5.55965 26.2424 5.50179 26.2424 5.43184C26.2424 5.36275 26.2709 5.30489 26.3054 5.30489C26.34 5.30489 26.3693 5.24789 26.3693 5.17794C26.3693 5.10885 26.3978 5.05099 26.4324 5.05099C26.4669 5.05099 26.4963 4.99399 26.4963 4.92404C26.4963 4.85495 26.5248 4.79709 26.5593 4.79709C26.5939 4.79709 26.6232 4.72455 26.6232 4.6356C26.6232 4.50088 26.7269 4.30053 26.802 4.29189C26.8444 4.3139 26.8822 4.3438 26.9134 4.37998L26.9125 4.38084Z" fill="#050038"/>
</g>
<defs>
<clipPath id="clip0_0_61">
<rect width="131.266" height="19.8627" fill="white" transform="translate(0.733521 0.0921631)"/>
</clipPath>
</defs>
</svg>
