<svg width="104" height="29" viewBox="0 0 104 29" fill="none" xmlns="http://www.w3.org/2000/svg">
<g clip-path="url(#clip0_0_63)">
<path d="M14.471 26.628C12.912 26.8981 11.3257 26.979 9.68468 27.1947L4.67939 12.7296V27.8156C3.12046 27.9774 1.69826 28.1933 0.221313 28.4092V0.77417H4.37871L10.0675 16.454V0.77417H14.471V26.628ZM23.0864 10.8945C24.7823 10.8945 27.3805 10.8135 28.9395 10.8135V15.1314C26.9975 15.1314 24.7276 15.1314 23.0864 15.2123V21.6354C25.6575 21.4735 28.2284 21.2574 30.8266 21.1764V25.3323L18.7102 26.277V0.77417H30.8266V5.09215H23.0864V10.8945ZM47.1002 5.09225H42.56V24.9549C41.0831 24.9549 39.6061 24.9549 38.1841 25.0087V5.09225H33.644V0.77417H47.1004L47.1002 5.09225ZM54.2113 10.5977H60.2011V14.9155H54.2113V24.7121H49.9169V0.77417H62.143V5.09215H54.2113V10.5977ZM69.2541 20.9337C71.7431 20.9876 74.2592 21.1768 76.6935 21.3115V25.5755C72.7824 25.3325 68.8713 25.0899 64.8781 25.0087V0.77417H69.2541V20.9337ZM80.3858 25.8724C81.7806 25.9535 83.2576 26.0345 84.6798 26.1962V0.77417H80.3858V25.8724ZM103.853 0.77417L98.3007 13.9171L103.853 28.4092C102.212 28.1933 100.57 27.8964 98.9294 27.6265L95.7842 19.6385L92.5846 26.979C90.9981 26.7089 89.4661 26.628 87.8806 26.4121L93.5146 13.755L88.4272 0.77417H93.1312L96.0027 8.03379L99.0667 0.77417L103.853 0.77417Z" fill="#050038"/>
</g>
<defs>
<clipPath id="clip0_0_63">
<rect width="103.631" height="27.635" fill="white" transform="translate(0.221313 0.77417)"/>
</clipPath>
</defs>
</svg>
