<svg width="100" height="29" viewBox="0 0 100 29" fill="none" xmlns="http://www.w3.org/2000/svg">
<g clip-path="url(#clip0_0_58)">
<path d="M49.2704 22.4133H49.88L53.0201 26.7425V22.4133H53.559V27.6639H53.0477L49.8075 23.206V27.6639H49.2695V22.4133H49.2704ZM54.8958 22.4133H58.3692V22.9452H55.4571V24.6811H58.2984V25.2061H55.4571V27.1561H58.3977V27.6656H54.8958V22.4133ZM61.1837 22.9444H59.2146V22.4133H63.7148V22.9452H61.745V27.6656H61.1854V22.9444H61.1837ZM64.3954 22.4133H64.9705L66.3523 26.7571L67.7625 22.4133H68.2444L69.6477 26.7571L71.0364 22.4133H71.5753L69.8887 27.7002H69.4059L67.9888 23.3278L66.5785 27.7002H66.0889L64.3962 22.4133H64.3954ZM72.077 25.0369C72.077 23.1663 73.033 22.3286 74.7127 22.3286C76.3993 22.3286 77.364 23.1646 77.364 25.0369C77.364 26.9143 76.3993 27.7511 74.7127 27.7511C73.033 27.7511 72.077 26.9152 72.077 25.0369ZM76.8044 25.0438C76.8044 23.6257 76.1454 22.8606 74.7145 22.8606C73.2895 22.8606 72.6375 23.6257 72.6375 25.0438C72.6375 26.4678 73.2895 27.2347 74.7136 27.2347C76.1437 27.2347 76.8035 26.4678 76.8035 25.0438H76.8044ZM80.6258 25.5265H79.0523V27.6682H78.5065V22.4167H80.7752C81.9928 22.4167 82.5473 22.9055 82.5473 23.947C82.5473 24.8538 82.1155 25.3857 81.2001 25.5058L82.4687 27.6674H81.8728L80.6258 25.5256V25.5265ZM80.7812 25.017C81.5265 25.017 81.9868 24.7899 81.9868 23.9608C81.9868 23.1456 81.5403 22.9331 80.7605 22.9331H79.054V25.0161H80.7812V25.017ZM85.3298 24.8788L84.2814 26.0274V27.6639H83.7356V22.4133H84.2814V25.3115L86.9387 22.4133H87.5838L85.7003 24.4755L87.8394 27.6656H87.2081L85.3298 24.8788ZM88.3066 27.1328L88.5899 26.7079C89.1499 27.0657 89.8028 27.2507 90.4673 27.2399C91.5511 27.2399 92.0339 26.935 92.0339 26.2122C92.0339 25.4678 91.4103 25.3624 90.4673 25.1932C89.3325 24.9937 88.5674 24.802 88.5674 23.7389C88.5674 22.725 89.2194 22.3286 90.4673 22.3286C91.2886 22.3286 91.8776 22.5134 92.2964 22.7976L91.9993 23.2501C91.6237 23.0014 91.064 22.8381 90.4682 22.8381C89.526 22.8381 89.1218 23.1007 89.1218 23.7242C89.1218 24.3892 89.6667 24.5187 90.602 24.688C91.7506 24.8944 92.5797 25.0645 92.5797 26.1906C92.5797 27.233 91.9138 27.7365 90.482 27.7365C89.6875 27.7365 88.9724 27.5724 88.3066 27.1337V27.1328ZM98.0704 0.70851C90.6875 0.70851 90.374 4.01608 90.374 8.68295V20.1394H92.115V8.68209C92.115 5.16552 91.9751 2.34416 98.0704 2.34416C98.7241 2.34416 99.3027 2.3787 99.8235 2.43916V0.781052C99.2405 0.730691 98.6555 0.706486 98.0704 0.70851ZM11.9561 12.6857V1.08936H13.7325V12.7203C13.7325 16.0641 13.698 18.8846 19.8261 18.8846C25.9196 18.8846 25.7814 16.0641 25.7814 12.5458V1.09022H27.5224V12.5467C27.5224 17.2135 27.2089 20.522 19.8261 20.522C12.4086 20.5203 11.9561 17.2135 11.9561 12.6857ZM46.0379 8.54305V20.1394H44.2615V8.5085C44.2615 5.16553 44.296 2.34416 38.1671 2.34416C32.0718 2.34416 32.2135 5.16553 32.2135 8.68295V20.1394H30.4725V8.68209C30.4725 4.01608 30.786 0.70851 38.1688 0.70851C45.5845 0.70851 46.0379 4.01608 46.0379 8.54305ZM49.2695 1.12649H50.9742V20.1403H49.2695V1.12649ZM54.1643 1.12649H63.0646C67.4784 1.12649 69.4811 3.32002 69.4811 7.22088C69.4811 11.1468 67.5052 13.5338 63.0404 13.5338H55.8691V20.1403H54.1643V1.12649ZM63.0913 11.8238C66.1657 11.8238 67.6943 10.3246 67.6943 7.29688C67.6943 4.26998 66.0448 2.83295 63.0136 2.83295H55.8674V11.823H63.0913V11.8238ZM71.4665 10.5621C71.4665 4.95653 73.0685 0.637695 80.2432 0.637695C87.6598 0.637695 87.9033 5.61632 87.8687 10.8756H73.1721C73.2066 15.5079 74.3561 18.9563 80.3805 18.9563C83.5844 18.9563 85.0474 18.084 86.6139 16.9363L87.5881 18.2257C85.8479 19.5142 83.7934 20.5246 80.3796 20.5246C72.8586 20.522 71.4665 16.1686 71.4665 10.5621ZM73.2066 9.27365H86.1606C85.9878 5.47815 85.7426 2.2388 80.2052 2.2388C74.8785 2.24053 73.4173 5.13012 73.2066 9.27365ZM1.26482 24.2639C8.64683 24.2639 8.96118 20.9564 8.96118 16.2886V1.08936H7.21931V16.2886C7.21931 19.8061 7.35921 22.6274 1.26482 22.6274C1.03424 22.6274 0.815746 22.6214 0.603302 22.6136V24.2544C0.815746 24.2605 1.03683 24.2639 1.26395 24.2639H1.26482ZM95.9261 20.2223C95.6072 20.2221 95.3014 20.0954 95.0757 19.8701C94.85 19.6447 94.7229 19.3391 94.7222 19.0202C94.7222 18.7825 94.7927 18.5501 94.9247 18.3525C95.0567 18.1548 95.2444 18.0008 95.4639 17.9097C95.6835 17.8187 95.9251 17.7948 96.1582 17.841C96.3914 17.8873 96.6056 18.0016 96.7738 18.1695C96.942 18.3375 97.0566 18.5515 97.1032 18.7846C97.1498 19.0177 97.1262 19.2593 97.0355 19.479C96.9448 19.6987 96.7909 19.8866 96.5935 20.0189C96.396 20.1512 96.1638 20.222 95.9261 20.2223ZM95.9261 17.9735C95.3483 17.9735 94.8785 18.4433 94.8785 19.0202C94.8785 19.5962 95.3483 20.0677 95.9261 20.0677C96.1948 20.0544 96.4481 19.9382 96.6335 19.7433C96.819 19.5484 96.9224 19.2897 96.9224 19.0206C96.9224 18.7516 96.819 18.4928 96.6335 18.2979C96.4481 18.103 96.1948 17.9869 95.9261 17.9735Z" fill="#050038"/>
<path d="M96.004 19.1808H95.6179V19.7111H95.4348V18.3311H96.0489C96.3986 18.3311 96.5342 18.4753 96.5342 18.7473C96.5342 18.9692 96.4392 19.1247 96.2009 19.1687L96.5135 19.7111H96.3131L96.004 19.1808ZM96.0463 19.0081C96.2354 19.0081 96.3433 18.9546 96.3433 18.7525C96.3433 18.5539 96.2389 18.5064 96.0411 18.5064H95.6179V19.0081H96.0463Z" fill="#050038"/>
</g>
<defs>
<clipPath id="clip0_0_58">
<rect width="99.3135" height="27.635" fill="white" transform="translate(0.604309 0.637695)"/>
</clipPath>
</defs>
</svg>
