<svg width="181" height="334" viewBox="0 0 181 334" fill="none" xmlns="http://www.w3.org/2000/svg">
<circle cx="176.334" cy="328.999" r="4.21763" transform="rotate(-90.3282 176.334 328.999)" fill="white" fill-opacity="0.05"/>
<circle cx="147.235" cy="329.048" r="4.21763" transform="rotate(-90.3282 147.235 329.048)" fill="white" fill-opacity="0.05"/>
<circle cx="176.334" cy="33.7656" r="4.21763" transform="rotate(-90.3282 176.334 33.7656)" fill="white" fill-opacity="0.05"/>
<circle cx="147.235" cy="33.8142" r="4.21763" transform="rotate(-90.3282 147.235 33.8142)" fill="white" fill-opacity="0.05"/>
<circle cx="176.334" cy="4.24192" r="4.21763" transform="rotate(-90.3282 176.334 4.24192)" fill="white" fill-opacity="0.05"/>
<circle cx="147.235" cy="4.29051" r="4.21763" transform="rotate(-90.3282 147.235 4.29051)" fill="white" fill-opacity="0.05"/>
<circle cx="176.758" cy="299.524" r="4.21763" transform="rotate(-90.3282 176.758 299.524)" fill="white" fill-opacity="0.05"/>
<circle cx="147.659" cy="299.573" r="4.21763" transform="rotate(-90.3282 147.659 299.573)" fill="white" fill-opacity="0.05"/>
<circle cx="176.758" cy="270.001" r="4.21763" transform="rotate(-90.3282 176.758 270.001)" fill="white" fill-opacity="0.05"/>
<circle cx="147.659" cy="270.049" r="4.21763" transform="rotate(-90.3282 147.659 270.049)" fill="white" fill-opacity="0.05"/>
<circle cx="176.758" cy="240.478" r="4.21763" transform="rotate(-90.3282 176.758 240.478)" fill="white" fill-opacity="0.05"/>
<circle cx="147.659" cy="240.526" r="4.21763" transform="rotate(-90.3282 147.659 240.526)" fill="white" fill-opacity="0.05"/>
<circle cx="176.758" cy="210.954" r="4.21763" transform="rotate(-90.3282 176.758 210.954)" fill="white" fill-opacity="0.05"/>
<circle cx="147.659" cy="211.003" r="4.21763" transform="rotate(-90.3282 147.659 211.003)" fill="white" fill-opacity="0.05"/>
<circle cx="176.758" cy="181.43" r="4.21763" transform="rotate(-90.3282 176.758 181.43)" fill="white" fill-opacity="0.05"/>
<circle cx="147.659" cy="181.479" r="4.21763" transform="rotate(-90.3282 147.659 181.479)" fill="white" fill-opacity="0.05"/>
<circle cx="176.758" cy="151.907" r="4.21763" transform="rotate(-90.3282 176.758 151.907)" fill="white" fill-opacity="0.05"/>
<circle cx="147.659" cy="151.956" r="4.21763" transform="rotate(-90.3282 147.659 151.956)" fill="white" fill-opacity="0.05"/>
<circle cx="176.758" cy="122.384" r="4.21763" transform="rotate(-90.3282 176.758 122.384)" fill="white" fill-opacity="0.05"/>
<circle cx="147.659" cy="122.432" r="4.21763" transform="rotate(-90.3282 147.659 122.432)" fill="white" fill-opacity="0.05"/>
<circle cx="176.758" cy="92.8603" r="4.21763" transform="rotate(-90.3282 176.758 92.8603)" fill="white" fill-opacity="0.05"/>
<circle cx="147.659" cy="92.9087" r="4.21763" transform="rotate(-90.3282 147.659 92.9087)" fill="white" fill-opacity="0.05"/>
<circle cx="176.758" cy="63.3364" r="4.21763" transform="rotate(-90.3282 176.758 63.3364)" fill="white" fill-opacity="0.05"/>
<circle cx="147.659" cy="63.385" r="4.21763" transform="rotate(-90.3282 147.659 63.385)" fill="white" fill-opacity="0.05"/>
<circle cx="64.9912" cy="329.048" r="4.21763" transform="rotate(-90.3282 64.9912 329.048)" fill="white" fill-opacity="0.05"/>
<circle cx="35.8918" cy="329.097" r="4.21763" transform="rotate(-90.3282 35.8918 329.097)" fill="white" fill-opacity="0.05"/>
<circle cx="64.9912" cy="33.8142" r="4.21763" transform="rotate(-90.3282 64.9912 33.8142)" fill="white" fill-opacity="0.05"/>
<circle cx="35.8918" cy="33.8628" r="4.21763" transform="rotate(-90.3282 35.8918 33.8628)" fill="white" fill-opacity="0.05"/>
<circle cx="64.9912" cy="4.29002" r="4.21763" transform="rotate(-90.3282 64.9912 4.29002)" fill="white" fill-opacity="0.05"/>
<circle cx="35.8918" cy="4.33836" r="4.21763" transform="rotate(-90.3282 35.8918 4.33836)" fill="white" fill-opacity="0.05"/>
<circle cx="65.4151" cy="299.573" r="4.21763" transform="rotate(-90.3282 65.4151 299.573)" fill="white" fill-opacity="0.05"/>
<circle cx="36.3157" cy="299.622" r="4.21763" transform="rotate(-90.3282 36.3157 299.622)" fill="white" fill-opacity="0.05"/>
<circle cx="65.4151" cy="270.049" r="4.21763" transform="rotate(-90.3282 65.4151 270.049)" fill="white" fill-opacity="0.05"/>
<circle cx="36.3157" cy="270.097" r="4.21763" transform="rotate(-90.3282 36.3157 270.097)" fill="white" fill-opacity="0.05"/>
<circle cx="65.4151" cy="240.526" r="4.21763" transform="rotate(-90.3282 65.4151 240.526)" fill="white" fill-opacity="0.05"/>
<circle cx="36.3157" cy="240.575" r="4.21763" transform="rotate(-90.3282 36.3157 240.575)" fill="white" fill-opacity="0.05"/>
<circle cx="65.4151" cy="211.003" r="4.21763" transform="rotate(-90.3282 65.4151 211.003)" fill="white" fill-opacity="0.05"/>
<circle cx="36.3157" cy="211.051" r="4.21763" transform="rotate(-90.3282 36.3157 211.051)" fill="white" fill-opacity="0.05"/>
<circle cx="65.4151" cy="181.479" r="4.21763" transform="rotate(-90.3282 65.4151 181.479)" fill="white" fill-opacity="0.05"/>
<circle cx="36.3157" cy="181.527" r="4.21763" transform="rotate(-90.3282 36.3157 181.527)" fill="white" fill-opacity="0.05"/>
<circle cx="65.4151" cy="151.956" r="4.21763" transform="rotate(-90.3282 65.4151 151.956)" fill="white" fill-opacity="0.05"/>
<circle cx="36.3157" cy="152.005" r="4.21763" transform="rotate(-90.3282 36.3157 152.005)" fill="white" fill-opacity="0.05"/>
<circle cx="65.4151" cy="122.432" r="4.21763" transform="rotate(-90.3282 65.4151 122.432)" fill="white" fill-opacity="0.05"/>
<circle cx="36.3157" cy="122.481" r="4.21763" transform="rotate(-90.3282 36.3157 122.481)" fill="white" fill-opacity="0.05"/>
<circle cx="65.4151" cy="92.9082" r="4.21763" transform="rotate(-90.3282 65.4151 92.9082)" fill="white" fill-opacity="0.05"/>
<circle cx="36.3157" cy="92.9565" r="4.21763" transform="rotate(-90.3282 36.3157 92.9565)" fill="white" fill-opacity="0.05"/>
<circle cx="65.4151" cy="63.385" r="4.21763" transform="rotate(-90.3282 65.4151 63.385)" fill="white" fill-opacity="0.05"/>
<circle cx="36.3157" cy="63.4336" r="4.21763" transform="rotate(-90.3282 36.3157 63.4336)" fill="white" fill-opacity="0.05"/>
<circle cx="121.929" cy="329.048" r="4.21763" transform="rotate(-90.3282 121.929 329.048)" fill="white" fill-opacity="0.05"/>
<circle cx="92.8298" cy="329.097" r="4.21763" transform="rotate(-90.3282 92.8298 329.097)" fill="white" fill-opacity="0.05"/>
<circle cx="121.929" cy="33.8142" r="4.21763" transform="rotate(-90.3282 121.929 33.8142)" fill="white" fill-opacity="0.05"/>
<circle cx="92.8298" cy="33.8628" r="4.21763" transform="rotate(-90.3282 92.8298 33.8628)" fill="white" fill-opacity="0.05"/>
<circle cx="121.929" cy="4.29002" r="4.21763" transform="rotate(-90.3282 121.929 4.29002)" fill="white" fill-opacity="0.05"/>
<circle cx="92.8298" cy="4.33836" r="4.21763" transform="rotate(-90.3282 92.8298 4.33836)" fill="white" fill-opacity="0.05"/>
<circle cx="122.353" cy="299.573" r="4.21763" transform="rotate(-90.3282 122.353 299.573)" fill="white" fill-opacity="0.05"/>
<circle cx="93.2538" cy="299.622" r="4.21763" transform="rotate(-90.3282 93.2538 299.622)" fill="white" fill-opacity="0.05"/>
<circle cx="122.353" cy="270.049" r="4.21763" transform="rotate(-90.3282 122.353 270.049)" fill="white" fill-opacity="0.05"/>
<circle cx="93.2537" cy="270.097" r="4.21763" transform="rotate(-90.3282 93.2537 270.097)" fill="white" fill-opacity="0.05"/>
<circle cx="122.353" cy="240.526" r="4.21763" transform="rotate(-90.3282 122.353 240.526)" fill="white" fill-opacity="0.05"/>
<circle cx="93.2538" cy="240.575" r="4.21763" transform="rotate(-90.3282 93.2538 240.575)" fill="white" fill-opacity="0.05"/>
<circle cx="122.353" cy="211.003" r="4.21763" transform="rotate(-90.3282 122.353 211.003)" fill="white" fill-opacity="0.05"/>
<circle cx="93.2538" cy="211.051" r="4.21763" transform="rotate(-90.3282 93.2538 211.051)" fill="white" fill-opacity="0.05"/>
<circle cx="122.353" cy="181.479" r="4.21763" transform="rotate(-90.3282 122.353 181.479)" fill="white" fill-opacity="0.05"/>
<circle cx="93.2537" cy="181.527" r="4.21763" transform="rotate(-90.3282 93.2537 181.527)" fill="white" fill-opacity="0.05"/>
<circle cx="122.353" cy="151.956" r="4.21763" transform="rotate(-90.3282 122.353 151.956)" fill="white" fill-opacity="0.05"/>
<circle cx="93.2538" cy="152.005" r="4.21763" transform="rotate(-90.3282 93.2538 152.005)" fill="white" fill-opacity="0.05"/>
<circle cx="122.353" cy="122.432" r="4.21763" transform="rotate(-90.3282 122.353 122.432)" fill="white" fill-opacity="0.05"/>
<circle cx="93.2538" cy="122.481" r="4.21763" transform="rotate(-90.3282 93.2538 122.481)" fill="white" fill-opacity="0.05"/>
<circle cx="122.353" cy="92.9082" r="4.21763" transform="rotate(-90.3282 122.353 92.9082)" fill="white" fill-opacity="0.05"/>
<circle cx="93.2537" cy="92.9565" r="4.21763" transform="rotate(-90.3282 93.2537 92.9565)" fill="white" fill-opacity="0.05"/>
<circle cx="122.353" cy="63.385" r="4.21763" transform="rotate(-90.3282 122.353 63.385)" fill="white" fill-opacity="0.05"/>
<circle cx="93.2538" cy="63.4336" r="4.21763" transform="rotate(-90.3282 93.2538 63.4336)" fill="white" fill-opacity="0.05"/>
<circle cx="10.586" cy="329.097" r="4.21763" transform="rotate(-90.3282 10.586 329.097)" fill="white" fill-opacity="0.05"/>
<circle cx="10.586" cy="33.862" r="4.21763" transform="rotate(-90.3282 10.586 33.862)" fill="white" fill-opacity="0.05"/>
<circle cx="10.5859" cy="4.33836" r="4.21763" transform="rotate(-90.3282 10.5859 4.33836)" fill="white" fill-opacity="0.05"/>
<circle cx="11.0099" cy="299.621" r="4.21763" transform="rotate(-90.3282 11.0099 299.621)" fill="white" fill-opacity="0.05"/>
<circle cx="11.0099" cy="270.097" r="4.21763" transform="rotate(-90.3282 11.0099 270.097)" fill="white" fill-opacity="0.05"/>
<circle cx="11.0099" cy="240.575" r="4.21763" transform="rotate(-90.3282 11.0099 240.575)" fill="white" fill-opacity="0.05"/>
<circle cx="11.0099" cy="211.051" r="4.21763" transform="rotate(-90.3282 11.0099 211.051)" fill="white" fill-opacity="0.05"/>
<circle cx="11.0099" cy="181.527" r="4.21763" transform="rotate(-90.3282 11.0099 181.527)" fill="white" fill-opacity="0.05"/>
<circle cx="11.0099" cy="152.005" r="4.21763" transform="rotate(-90.3282 11.0099 152.005)" fill="white" fill-opacity="0.05"/>
<circle cx="11.0099" cy="122.48" r="4.21763" transform="rotate(-90.3282 11.0099 122.48)" fill="white" fill-opacity="0.05"/>
<circle cx="11.0099" cy="92.9565" r="4.21763" transform="rotate(-90.3282 11.0099 92.9565)" fill="white" fill-opacity="0.05"/>
<circle cx="11.0099" cy="63.4343" r="4.21763" transform="rotate(-90.3282 11.0099 63.4343)" fill="white" fill-opacity="0.05"/>
</svg>
