<svg width="94" height="15" viewBox="0 0 94 15" fill="none" xmlns="http://www.w3.org/2000/svg">
<path d="M7.62891 8.62524L8.01172 6.10962H5.57812V4.46899C5.57812 3.75806 5.90625 3.10181 7 3.10181H8.12109V0.94165C8.12109 0.94165 7.10938 0.750244 6.15234 0.750244C4.15625 0.750244 2.84375 1.98071 2.84375 4.16821V6.10962H0.601562V8.62524H2.84375V14.7502H5.57812V8.62524H7.62891ZM43.0938 0.968994C39.3477 0.968994 36.3125 4.03149 36.3125 7.75024C36.3125 11.4963 39.3477 14.5315 43.0938 14.5315C46.8125 14.5315 49.875 11.4963 49.875 7.75024C49.875 4.03149 46.8125 0.968994 43.0938 0.968994ZM47.5508 4.11353C48.3711 5.0979 48.8633 6.35571 48.8633 7.7229C48.6719 7.66821 46.7578 7.2854 44.8438 7.53149C44.6797 7.14868 44.543 6.82056 44.3242 6.38306C46.4844 5.50806 47.4414 4.27759 47.5508 4.11353ZM46.9219 3.42993C46.8125 3.59399 45.9375 4.76978 43.8867 5.5354C42.9297 3.7854 41.8906 2.36353 41.7266 2.14478C43.5586 1.70728 45.5 2.17212 46.9219 3.42993ZM40.6055 2.52759C40.7695 2.74634 41.8086 4.16821 42.7656 5.89087C40.0586 6.60181 37.6797 6.60181 37.4062 6.57446C37.7891 4.79712 38.9922 3.29321 40.6055 2.52759ZM37.2969 7.77759C37.2969 7.7229 37.2969 7.66821 37.2969 7.58618C37.543 7.61353 40.3594 7.64087 43.2305 6.76587C43.4219 7.09399 43.5586 7.42212 43.7227 7.75024C41.6172 8.35181 39.7031 10.0471 38.7734 11.6331C37.8438 10.6213 37.2969 9.25415 37.2969 7.77759ZM39.5117 12.344C40.1406 11.1135 41.7812 9.50024 44.1055 8.70728C44.9258 10.8127 45.2539 12.5901 45.3359 13.1096C43.4766 13.9026 41.2344 13.6838 39.5117 12.344ZM46.3203 12.5627C46.2656 12.2346 45.9375 10.5393 45.1992 8.43384C47.0039 8.1604 48.5898 8.62524 48.8086 8.67993C48.5352 10.2932 47.6055 11.6877 46.3203 12.5627ZM83.7812 7.25806C84.6289 6.82056 85.0938 6.19165 85.0938 5.23462C85.0938 3.29321 83.6445 2.82837 82.0039 2.82837H77.4375V12.5081H82.1133C83.8906 12.5081 85.5312 11.6604 85.5312 9.69165C85.5312 8.48853 84.957 7.58618 83.7812 7.25806ZM79.543 4.46899H81.5664C82.332 4.46899 83.0156 4.68774 83.0156 5.59009C83.0156 6.4104 82.4688 6.73853 81.7031 6.73853H79.543V4.46899ZM81.8398 10.8674H79.543V8.18774H81.8672C82.8242 8.18774 83.3984 8.5979 83.3984 9.58228C83.3984 10.5667 82.6875 10.8674 81.8398 10.8674ZM91.6289 4.27759V3.32056H87.7188V4.27759H91.6289ZM93.1875 9.11743C93.1875 7.03931 91.957 5.28931 89.7695 5.28931C87.6094 5.28931 86.1602 6.90259 86.1602 9.00806C86.1602 11.1956 87.5547 12.6995 89.7695 12.6995C91.4375 12.6995 92.5312 11.9338 93.0508 10.3479H91.3555C91.1641 10.9495 90.3984 11.2502 89.8242 11.2502C88.7031 11.2502 88.1016 10.594 88.1016 9.4729H93.1602C93.1602 9.36353 93.1875 9.22681 93.1875 9.11743ZM88.1016 8.24243C88.1562 7.34009 88.7852 6.76587 89.6875 6.76587C90.6719 6.76587 91.1641 7.31274 91.2461 8.24243H88.1016Z" fill="#C4C4C4"/>
</svg>
